<?xml version="1.0" encoding="UTF-8"?>
<svg id="Layer_1" xmlns="http://www.w3.org/2000/svg" version="1.1" viewBox="0 0 144 134.82">
  <!-- Generator: Adobe Illustrator 30.1.0, SVG Export Plug-In . SVG Version: 2.1.1 Build 136)  -->
  <defs>
    <style>
      .st0 {
        fill: #9dd1e9;
        stroke: #5e5e93;
        stroke-miterlimit: 10;
        stroke-width: .75px;
      }
    </style>
  </defs>
  <path class="st0" d="M111.19,46.12c-.35,4.88-2.35,9.63-5.29,13.58-5.34,7.18-15.06,8.79-23.34,9.99-5.34.78-10.66,1.42-16.06,1.52-3.01.05-6.01-.03-9.01-.25-1.57-.12-3.14-.27-4.7-.46-1.07-.13-3.25-.91-4.25-.62,6.74-1.97,13.76-2.75,20.67-4s13.86-3.05,19.8-6.8c4.53-2.87,8.63-7.53,8.29-12.89-.19-2.96-1.75-5.74-3.97-7.71s-5.03-3.19-7.92-3.82c-4.67-1.03-9.59-.6-14.17.77-3.63,1.08-7.21,2.86-9.5,5.87s-2.96,7.48-.82,10.6c1.68,2.45,4.77,3.66,7.74,3.64s5.83-1.1,8.47-2.48c2.19-1.14,4.55-2.98,4.38-5.45-.13-1.92-1.83-3.42-3.65-4.03-1.37-.46-3.06-.48-4.05.58-.75.81-.87,2.06-.58,3.12s.93,2,1.56,2.91c-2.64.89-5.83,1.69-8-.07-1.91-1.56-2.03-4.61-.8-6.74s3.5-3.47,5.8-4.35c3.77-1.44,8.09-1.87,11.81-.32,6.37,2.66,8.14,10.13,3.65,15.32-1.7,1.97-3.96,3.4-6.3,4.53-4.62,2.23-9.74,3.42-14.87,3.45-3.94.03-8.09-.72-11.09-3.27-4.04-3.43-5.06-9.56-3.39-14.6s5.57-9.06,9.94-12.05c13.94-9.55,47.95-12.54,49.65,11.07.07.99.07,1.98,0,2.96Z"/>
  <path class="st0" d="M45.04,60.91l-7.16-6.83c-4.83-2.61-9.51-4.84-14.75-6.63s-9.03-6.13-8.43-11.74c1.56-14.61,11.45-17.35,19.33-27.53,2.29,3.69,4.75,7.31,8.5,9.07,6.79,3.18,15.56-3.79,20.79-8.3,8.71-7.51,19.57-8.65,30.11-4.18,8.82,3.74,15.68,11.11,17.55,21.33-15.77-9.94-27.52-12.91-44.36-4.01-11.04,6.67-15.21,4.26-25.52,8.01-3.2,1.16-5.85,5.15-4.28,8.51,4.13,8.83,9.82,14.19,8.21,22.29Z"/>
  <path class="st0" d="M139.56,73.31l-10.08,11.57c-12.38,14.21-48.63,15.82-67.67,8.9,11.11-2.22,26.36-3.81,38.57-8.48.23.44-.09.83-.58,1.07-1.19.59-3.14.39-3.73,1.85-.49,1.24.98,2.48,1.92,2.94,1.09.54,2.21.26,3.08-.53.44-.39.92-.93,1.14-1.48l2.3-5.61c3.02-1.44,5.78-3.13,8.12-5.13,1.75-1.49,3.51-5.69,2.81-7.68-6.69-18.96,14.09-19.86-1.81-41.52,7.88.89,15.61,2.91,21.38,7.84,3.86,3.3,3.44,8.35.31,11.63-2.24,2.35-1.76,6.01.1,8.25l4.17,5.04c2.66,3.23,2.94,7.93-.03,11.34Z"/>
  <path class="st0" d="M89.99,102.79c-21.36,9.1-63.87,2.62-80.27-14.89-7.93-8.47-8.88-20.82-2.53-22.23,2.26-.5,6.1.07,7.76-1.2,2.68-2.05,4.73-4.74,7.17-6.87,5.46-4.75,13.28-2.95,17.64,2.27,2,2.39,3.72,4.82,4.94,7.25-3.13,1.5-5.43,2.48-7.71,4-4.97,3.33-5.42,9.39-2.1,14.09,8.75,12.36,30.66,15.79,44.93,16.83l10.16.74Z"/>
  <path class="st0" d="M74.57,133.51c-14.75-.17-28.18-4.82-37.43-16.58-2.7-3.44-4.15-7.8-5.18-12.43,27.45,21.87,66.05,15.55,88.67-10.02-2.77,24.27-22.76,39.3-46.05,39.03Z"/>
  <g>
    <path d="M54.38,79.79c-.72-.14-1.47-.11-2.23-.07l.03,5.26c1.24.33,2.64.38,3.79-.14s1.01-1.69,1.99-2.65l-.33,3.64h-9.05c.69-.69,1.11-1.02,1.11-1.78v-8.82c.01-.84-.38-1.09-1.18-1.79l8.66-.02c.18,1.01.3,2,.26,3.1-.91-.96-.99-2.2-2.34-2.39-.95-.14-1.97-.11-2.94-.07v4.98s2.04-.05,2.04-.05c.77-.02.86-.91,1.48-1.6.13,1.34.13,2.65.06,4.09-.75-.51-.46-1.52-1.36-1.69Z"/>
    <path d="M64.68,79.87c-.81-.25-1.59-.18-2.36-.13v4.7c-.02,1.3,3.19.73,3.79.41,1.04-.55,1.1-1.64,1.94-2.63,0,1.24-.14,2.32-.33,3.61h-9.07c.72-.68,1.22-.95,1.22-1.76l-.02-9.21c0-.54-.57-.79-1.15-1.39l8.63-.05.26,3.09c-.9-.81-.87-1.93-2.01-2.28-1.01-.31-2.12-.28-3.25-.16v4.93c.74.05,1.41.08,2.16-.03.66-.1.76-.92,1.32-1.56.18,1.38.18,2.69.03,4.04-.48-.54-.58-1.39-1.16-1.57Z"/>
    <path d="M82.24,73.48h3.71c-1,.71-1.44.91-1.45,1.96l-.03,6.66c-.01,2.59-2,4.04-4.43,3.97s-4.45-1.55-4.46-4.15l-.03-7.07c0-.5-.55-.76-1.13-1.35,1.58-.12,3.16-.11,4.76,0-.7.64-1.19.86-1.18,1.53l.06,7.03c.01,1.7,1.19,2.86,2.67,2.9,1.57.04,2.98-1.05,3-2.81l.06-6.71c0-1.05-.48-1.26-1.54-1.97Z"/>
    <path d="M47.94,82.23c.09,1.2-.1,2.43-.34,3.62l-8.88-.04c.73-.72,1.19-.98,1.18-1.74v-9.05c0-.63-.49-.93-1.11-1.51,1.61-.11,3.16-.12,4.85,0-.75.65-1.23.8-1.23,1.53l.03,10c1.15.21,2.34.28,3.33-.07,1.24-.43,1.2-1.67,2.17-2.74Z"/>
    <path d="M105.12,78.84l-3.69,9.5c-.48,1.24-1.8,1.93-2.99,1.44-.64-.26-.83-1.07-.55-1.55.75-1.28,2.04.39,2.52.3.48-.73.91-1.57,1.21-2.39l-3.32-7.96c-.13-.31-.64-.69-.99-1.15l4.22.04-.57.6c-.11.12-.17.53-.09.72l1.92,4.58,1.6-4.24c.08-.21.12-.77-.02-.91l-.82-.78h3.03c-.72.7-1.16,1.02-1.45,1.77Z"/>
    <path d="M89.14,84.16c0,.75.5.98,1.19,1.61h-4.43c.67-.68.97-.99.97-1.73l-.02-5.28-.97-.92,3.16-1.05.12,1.86c.67-1.19,1.48-2.01,2.76-1.76.44.09.95.6.99.96.04.45-.23,1.1-.57,1.22-1.38.5-1.8-1.39-2.56-.39-.33.44-.62,1.18-.62,1.73l-.02,3.74Z"/>
    <path d="M93.25,85.8c.27-.42.93-.79.94-1.14l.04-5.41c0-.63-.31-.9-1-1.4l3.29-1.05.02,7.27c0,.74.29,1.04,1.01,1.72h-4.3Z"/>
    <circle cx="95.32" cy="74.42" r="1.37"/>
    <rect x="69.13" y="79.97" width="4.71" height="1.18"/>
  </g>
</svg>