<?xml version="1.0" encoding="UTF-8"?>
<svg id="Layer_1" xmlns="http://www.w3.org/2000/svg" version="1.1" viewBox="0 0 156.88 137.12">
  <!-- Generator: Adobe Illustrator 30.1.0, SVG Export Plug-In . SVG Version: 2.1.1 Build 136)  -->
  <defs>
    <style>
      .st0 {
        fill: #fac67c;
      }

      .st1 {
        fill: #f8b8d2;
      }
    </style>
  </defs>
  <path class="st1" d="M72.45,68.67c-12.01-2.82-15.46-16.98-11.6-27.16.38,2.48.46,4.84,1.27,7.21,1.63,4.74,5.04,8.13,9.87,9.78,7.53,2.57,16,.83,22.04-4.41s8.71-13.66,6.74-21.7c-1.05-4.29-3.18-7.92-5.8-11.31,3.51,1.15,6.17,3.15,8.47,5.56,9,9.42,6.51,24-2.46,32.68-6.99,6.77-18.92,11.61-28.54,9.36Z"/>
  <path class="st1" d="M96.87,45.82c-1.41-6.88-3.89-13.32-9.12-18.04-9.79-8.82-24.19-9.85-35.4-3.11-.42-.63.34-.62.51-.99,2.9-6.27,8.48-11.03,15.34-12.5,4.96-1.06,9.86-.02,14.27,2.35,11.16,6,16.57,19.77,14.4,32.29Z"/>
  <path class="st0" d="M73.38,72.34c-13.66,2.53-31.39-3.26-34.95-18.21-.8-3.38-.85-7.35.11-10.73,1.69-5.97,5.76-11.49,11.46-14.45-2.16,4.63-3.59,9.13-3.71,14.26.09,10.56,5.92,20.16,15.21,25.11,3.73,2.12,7.59,2.99,11.88,4.03Z"/>
  <path class="st0" d="M116.26,11.77c-5.26,1.39-9.5,4.3-13.08,8.13-1.81-5.74,2.14-10.78,6.87-13.27,7.23-3.8,13.82-1.71,20.98-5.58-.55,11.39-9.23,22.78-20.97,23.13-2,.06-4.03-.37-5.46-1.78,3.43-4.25,7.52-7.36,11.65-10.64Z"/>
  <path class="st0" d="M59.45,82.2c-2.56-1.81-6.79-6.13-7.71-9.58,10.77,5.02,22.75,5.38,33.95,1.22,6.05-2.25,10.98-5.64,16.37-9.65-3.03,7.47-8.65,12.69-14.68,16.94-8.35,5.45-19.45,7.08-27.94,1.07Z"/>
  <path class="st1" d="M57.21,44.05c-1.57,4.77-1.75,9.35-.94,14.41-3.56-3.84-5.59-8.51-6.16-13.55-.93-8.63,3.6-16.53,11.55-20.03,7.3-3.21,15.87-2.06,22.2,3.17-8.1-2.3-15.97-.17-21.33,6.04-2.52,2.84-4.16,6.18-5.31,9.96Z"/>
  <path class="st0" d="M109.11,74.25c-3.64,3.58-11.15,7.23-16.48,7.26,12.53-9.91,18.93-25.87,19.21-42.16,8.57,10.64,6.4,25.92-2.73,34.9Z"/>
  <path d="M59.02,111.73c-1.78-.74-3.8-.2-5.69-.28l-.02,12.7,7.83.05c4.22.03,3.04-6.81,4.44-6.82.36,0,.67.12.66.67l-.1,7.47-19.58.03c-.41,0-.55-.14-.53-.48.05-.71,2.79.24,2.79-2.44l-.02-23.7c0-2.12-2.38-1.63-2.67-1.95-.11-.12-.12-.65.17-.65l19.17-.09.12,6.98c0,.47-.15.72-.59.73-1.4.02-.33-6.09-3.99-6.27-2.59-.13-5.1-.06-7.74-.05v12.55c1.77,0,3.42.34,4.99-.1,2.43-.69,1.79-4.25,2.22-4.52.15-.09.62-.11.73,0s.14.49.14.78v9.49c-1.89.96-.31-3.28-2.34-4.12Z"/>
  <path d="M36.34,111.9c-1.68-1.06-3.94-.28-5.93-.41v12.71s7.73.05,7.73.05c4.01.03,3.42-6.15,4.29-6.73.22-.15.96-.16.95.25l-.11,7.79-19.87.02c-.28,0-.23-.39-.23-.49-.03-.67,2.7.24,2.7-2.2l.02-23.64c0-.73-.19-1.28-.55-1.6-.61-.55-1.27-.18-1.91-.26-.15-.22-.31-.73-.18-.89.15-.17.35-.19.72-.19h18.74c.01,2.54.26,5.15.02,7.59-.84.26-1.51-.61-1.49-1.27.07-2.01-.82-4.97-3.29-4.98l-7.57-.04-.02,12.53c1.42.18,2.86.29,4.34.01,2.62-.49,2.07-1.38,2.81-4.31.07-.29.17-.29.32-.3s.6.04.6.35l.1,9.65c0,.35-.48.41-.7.37-.94-.17-.3-3.27-1.48-4.01Z"/>
  <path class="st1" d="M79.7,55.88c-4.56-.97-7.48-4.59-7.62-8.94,3.08,3.62,7.24,5.53,11.04,2.18,3.22-3.14,4.05-7.92,2.28-12.11-1.08-2.56-2.96-4.26-5.13-6.11,8.62,1.08,13.2,10.21,13.26,18,.04,5.54-8.57,8.1-13.83,6.98Z"/>
  <path d="M98.52,96.38c1.05.07,7.08-.54,7.23.37s-1.41-.04-2.33.85c-.34.33-.48.93-.49,1.62-.12,6.49.29,12.86-.19,19.26-.29,3.85-2.82,6.74-6.5,7.39-3.69.65-7.95.32-10.6-2.57-1.55-1.69-2.13-4.05-2.14-6.37l-.08-17.98c-.01-2.59-3.31-1-2.69-2.38.1-.22.39-.31.69-.31l8.89.04c.3,0,.48,0,.57.17.59,1.08-1.43.27-2.34,1.11-.37.34-.62.91-.61,1.63l.14,19.03c.03,3.68,2.98,6.07,6.53,5.85,2.08-.13,4.33-.74,5.33-2.75.44-.89,1.16-2.19,1.17-3.27l.21-18.84c.01-1.3-.9-2.12-2.12-2.06-.22.01-.52-.02-.66-.06-.15-.04-.1-.49,0-.74Z"/>
  <path d="M15.99,124.19c4.02-.19,3.15-6.84,4.38-7.08.24-.05.7.03.69.41l-.16,8.03H1.36c-.3,0-.24-.55-.14-.66.37-.41,2.73.27,2.72-2.25l-.03-23.69c0-1.88-2.07-1.59-2.62-1.82-.25-.1-.3-.79.05-.79h9.73c.32-.02.33.54.25.71-.27.57-2.94-.35-2.94,1.89v25.27c2.72.02,5.12.09,7.61-.02Z"/>
  <path d="M137.56,107.82c-.82-1.99-2.69-1.16-2.66-1.88.02-.33.24-.44.61-.44h8.27c.25,0,.48.12.54.22.55.97-1.26.16-1.91,1.14-.23.35-.31.95-.07,1.52l4.24,10.32c.1.24.34.54.5.53.9-.02,4.06-9.67,4.51-11.18.3-.99-.55-1.76-1.48-1.79-.26,0-.45-.1-.54-.06-.1.05-.07-.7.04-.71.73-.07,6.13-.34,6.4.22.56,1.18-1.84-.37-2.9,2.6l-8.06,22.52c-1.09,3.06-3.23,5.94-6.6,5.04-1.5-.4-2.8-1.66-2.94-3.47-.12-1.53.75-2.69,2.19-2.96,1.25-.24,2.52.46,2.97,1.87.38,1.21-.36,2.35-1.63,3.34,3.33,1.88,5.37-6.2,6.09-8.3l-7.58-18.52Z"/>
  <path d="M113.97,122.52c-.03,2.64,2.26,2.02,2.71,2.4.1.08.12.58-.07.58l-8.86.07c-.27,0-.49-.08-.55-.21-.05-.1-.05-.38.03-.48.07-.09.31-.11.54-.1,1.17.02,2-.62,2-1.81l-.03-14.01c0-1.05-.64-1.74-1.72-1.71-.25,0-.46-.02-.56-.13-.19-.2-.13-.58.27-.66l5.97-1.21.55,1.69c2.52-2.39,6.87-2.33,8.47.09.85,1.27.99,2.81.35,4.17-.72,1.53-2.59,1.98-3.94,1.07s-1.39-2.92-.24-4.22c.34-.38.72-.88.58-1.22-.22-.53-.85-.69-1.49-.61-2.25.28-3.87,2.47-3.89,4.79l-.12,11.53Z"/>
  <path d="M125.62,125.55c-.46,0-.5-.25-.5-.46.03-.74,2.51.25,2.51-2.14l.02-13.84c0-.55-.13-1.14-.48-1.43-.61-.5-1.76-.3-1.95-.62-.06-.1-.03-.44.16-.48l6.33-1.43.13,17.79c.02,2.59,3.16,1.28,2.48,2.4-.07.11-.3.2-.55.2h-8.15Z"/>
  <path class="st1" d="M83.28,40.08c-6.38-4-13.06-3.82-19.77-.34.66-2.53,2.26-4.73,4.28-6.43,5.18-4.36,13.52,1.4,15.48,6.78Z"/>
  <path class="st1" d="M71.96,55.53c-4.13-1.06-7.2-4.68-7.57-8.86-.49-5.58,5.42-7.4,9.75-7.06-5.7,4.72-6.31,9.71-2.18,15.91Z"/>
  <path class="st1" d="M83.53,46.58c-3.87,2.46-8.82.76-10.3-3.44,1.91-1.01,3.89-1.12,5.85-.65,2.07.48,3.67,1.75,4.46,4.09Z"/>
  <path d="M78.87,116.21l-10.12.02c-.16-.93-.16-1.74,0-2.75l10.07.05c.23.93.18,1.68.06,2.69Z"/>
  <path d="M126.77,98c.1-1.14.47-1.65,1.43-2.06,1.6-.67,3.54-.07,4.07,1.75.43,1.49-.49,3.29-2.33,3.45-1.71.15-3.35-1.06-3.17-3.15Z"/>
</svg>