<?xml version="1.0" encoding="UTF-8"?>
<svg id="Layer_1" xmlns="http://www.w3.org/2000/svg" version="1.1" viewBox="0 0 152.95 148.37">
  <!-- Generator: Adobe Illustrator 30.1.0, SVG Export Plug-In . SVG Version: 2.1.1 Build 136)  -->
  <defs>
    <style>
      .st0 {
        fill: #f8f8ec;
      }

      .st1 {
        fill: #9dd1ea;
      }

      .st2 {
        stroke: #231f20;
        stroke-miterlimit: 10;
      }

      .st2, .st3 {
        fill: #fdfdfd;
      }

      .st4 {
        fill: #a2d1e9;
      }

      .st5 {
        fill: #fcdf63;
      }

      .st6 {
        fill: #e9e6c2;
      }

      .st7 {
        fill: #9cd1ea;
      }

      .st8 {
        fill: #9ecde5;
      }

      .st9 {
        fill: #fcfdfc;
      }

      .st10 {
        fill: #fbdc5d;
      }

      .st11 {
        fill: #fcdf62;
      }

      .st12 {
        fill: #f2eed2;
      }

      .st13 {
        fill: #fbde60;
      }

      .st14 {
        fill: #080808;
      }

      .st15 {
        fill: #6dabc9;
      }

      .st16 {
        fill: #9fd1e9;
      }

      .st17 {
        fill: #6dabca;
      }

      .st18 {
        fill: #fbdb5f;
      }

      .st19 {
        fill: #b1cddf;
      }

      .st20 {
        fill: #93c8e3;
      }

      .st21 {
        fill: #020202;
      }

      .st22 {
        fill: #9dd2eb;
      }

      .st23 {
        fill: #91b5ca;
      }

      .st24 {
        fill: #050505;
      }

      .st25 {
        fill: #262626;
      }

      .st26 {
        fill: #77a9c4;
      }

      .st27 {
        fill: #060606;
      }

      .st28 {
        fill: #76adce;
      }

      .st29 {
        fill: #fbdd5c;
      }

      .st30 {
        fill: #f9f9ee;
      }

      .st31 {
        fill: #fafbfa;
      }

      .st32 {
        fill: #9dd1e9;
      }

      .st33 {
        fill: #73acc9;
      }

      .st34 {
        fill: #fbfbfb;
      }

      .st35 {
        fill: #f1f5f6;
      }

      .st36 {
        fill: #fdfefd;
      }

      .st37 {
        fill: #fcde5d;
      }

      .st38 {
        fill: #6facca;
      }

      .st39 {
        fill: #6eaacb;
      }

      .st40 {
        fill: #6caccc;
      }

      .st41 {
        fill: #9fd0e7;
      }

      .st42 {
        fill: #020407;
      }

      .st43 {
        fill: #79aac9;
      }

      .st44 {
        fill: #6eaccb;
      }

      .st45 {
        fill: #6ea9c8;
      }

      .st46 {
        fill: #6cabc9;
      }

      .st47 {
        fill: #030303;
      }

      .st48 {
        fill: #faf9ee;
      }

      .st49 {
        fill: #dce9ee;
      }

      .st50 {
        fill: #9ccfe7;
      }

      .st51 {
        fill: #fafcfc;
      }

      .st52 {
        fill: #f6fbfb;
      }

      .st53 {
        fill: #8cb7d0;
      }

      .st54 {
        fill: #70a8c8;
      }

      .st55 {
        fill: #848483;
      }

      .st56 {
        fill: #72afd1;
      }

      .st57 {
        fill: #6cabca;
      }

      .st58 {
        fill: #f5f3e1;
      }

      .st59 {
        fill: #68a7c7;
      }

      .st60 {
        fill: #6fadcc;
      }

      .st61 {
        fill: #fefefe;
      }

      .st62 {
        fill: #040404;
      }

      .st63 {
        fill: #87b8d2;
      }

      .st64 {
        fill: #73abcc;
      }

      .st65 {
        fill: #f8f8f8;
      }

      .st66 {
        fill: #9cd2ea;
      }

      .st67 {
        fill: #f7fbfb;
      }

      .st68 {
        fill: #fcfdfd;
      }

      .st69 {
        fill: #9ed1e9;
      }

      .st70 {
        fill: #76afcd;
      }

      .st71 {
        fill: #70a2c0;
      }

      .st72 {
        fill: #f6f6ee;
      }
    </style>
  </defs>
  <g>
    <path class="st42" d="M32.38,121.32c-6.74-1.52-11.31-3.14-16.04-8.22-2.1-2.25-4.25-4.27-6.15-6.67-5.27-6.65-3.2-13.95,2.58-19.6-3.66-3.71-7.02-7.53-9.66-11.96-4.39-7.38,2.44-9.71,3.22-21.15.46-6.69,2.16-11.76,7.76-15.76-2.3-1.96-3.74-4.37-4.59-7.17l-1.79-6.26c-1.03-3.62-2.87-6.45-5.39-9.59,4.78-.05,8.98.4,13.37,1.04,6.63.96,12.43,4.22,16.71,9.49,1.15-1.1,2.1-2.19,3.24-3.17,4.85-4.17,4.06-8.24,5.78-12.74.64-1.67,2.05-2.67,3.9-2.63,2.35.04,4.68.54,7.01,1.13,16.59,4.2,17.73-8.46,32.96,5.55,5.96-2.27,11.6-2.53,17.22.57,1.51.83,2.95,1.57,4.74,2.11,1.54-4.05,4.62-6.95,8.8-8.12l7.68-2.16c2.63-.74,4.39-2.25,6.73-4.4.57,5.57.56,10.86-.27,16.16-.64,4.06-2.35,7.55-5.55,10.28,8.34,3.42,11.07,8.66,13.56,16.71,1.2,3.89,3.21,7.26,6.1,10.11,2.96,2.91,6.04,5.5,4.36,10.11-1.32,3.63-2.24,7.2-2.67,11.11-1.14,10.46-7.13,19.06-16.54,23.94,8.37,1.39,11.1,6.35,15.06,12.67,1.55,3.03,3.64,5.39,5.73,8.29-11.15.06-18.51,5.28-28.59-1.76-4.73,8.38-10.46,9.42-14.11,19.2-.87,2.34-3.02,3.52-5.49,3.26-8.1-.85-12.29-5.26-22.98-3.6l-7.52,1.16c-6.44,1-12.61-.73-17.75-4.84-1.86,3.16-4.67,5.2-8.11,6.15-7.39,2.2-11.82-.26-18.23,6.2-.97-8.31-1.43-19.36,4.89-25.45Z"/>
    <path class="st61" d="M36.59,82.86l-3.01-17.13c-.23-1.29.07-2.59.83-3.5s1.89-1.4,3.41-1.4h76.78c3.35-.02,7.9-.95,9.23-4.18,2.38,5.83-1.98,18.37-4.4,23.64-.74,1.61-2.09,2.48-3.93,2.49l-78.92.08Z"/>
    <path class="st32" d="M134.67,38.15c1.22,4.51,2.4,9.06,3.53,13.63,1.38,2.91,3.13,5.62,5.26,8.14,1.97,3.75.43,6.99-1.34,10.5-1.38,3.97-2.35,8.05-2.93,12.26-4.29,16.09-23.3,23.05-38.46,22.75.07.07-.08.17-.43.3-2.56-.13-4.78-.66-7.24-1.31,2.34-1.18,4.46-2.48,6.64-3.76l1.46-.67c10.43-2.15,21.21-7.86,24.51-18.7,1.11-4.66,2.49-9.24,4.16-13.72,1.26-4.3.58-7.56-1.53-11.33-4.97-6.27-7.56-13.5-10.07-21.1-.46-2.64-1.06-5.02-1.93-7.48,8.07.03,14.91,3.66,18.38,10.48Z"/>
    <path class="st1" d="M120.36,104.27c1.33,1.13,1.02,3.88.8,5.59-.74,5.9-3.86,9.64-8.09,13.43-2.83,1.97-5.29,4.26-7.39,6.89-2.85,6.37-6.32,6.99-12.86,6.25-8.33-1.94-16.26-1.76-24.47.84-3.12.6-6.24.35-9.35-.76-6.11-2.98-10.64-8.41-13.36-14.61,3.77-.75,7.36-.69,10.73-1.54,2.27.29,4.54.64,6.82,1.06,4.4.2,8.77.72,13.1,1.57,9.56,3.1,16.21,3.55,23.12-4.56,3.65-5.82,8.35-10.18,14.96-12.69l5.98-1.45Z"/>
    <path class="st66" d="M27.59,94.05c6.35.9,11.67,3.72,16.28,8.37,7,5.86,15.82,6.48,24.44,6.28,5.35.47,10.2.16,15.65-.86-9.91,6.47-21.01,10.32-32.43,12.25-5.96.31-11.81.29-17.63-1.6-6.34-2.07-10.04-6.1-14.12-11.22l-6.29-5.03c-3.43-3.69-3.28-10.09-.11-13.9.18-.22.46-.25.74-.2,4.14,3,8.48,5.52,13.47,5.91Z"/>
    <path class="st69" d="M74.89,16.31c-6.11.3-11.38,2.32-16.08,6.29-2.78,1.63-5.81,2.73-9.07,3.29-12.47,4.6-15.2,21.6-9.61,32.56l-.05,1.28c-1.48.02-2.69.05-4.21.26-4.67-6.77-8.09-18.36-5.9-26.26.75-2.73,2.43-4.67,4.63-6.47,3.75-2.34,6.45-5.36,8.09-9.06,1.44-6.28,2.62-10.62,10.21-8.71l1.29-.03c13.89,3.02,16.52-8.07,29.97,4.51-2.48,2.02-7.44,1.66-9.29,2.34Z"/>
    <path class="st7" d="M51.2,83.87l1.41.33c6.14,4.03,13.19,6.45,20.44,7.52,10.22,1.4,20.46,2.88,30.73,4.42l1.02.68c-3.84,2.29-8.56,2.86-13.21,2.54-10.35-.72-11.41,1.2-20.75,2.37-7.35.92-14.49-.97-20.52-5.24-7.69-5.45-11.33-12.07-20.24-15.06-.58-.2-1.1-.69-1.57-.81l-1.44-1c-2.15-3.73-3.97-7.63-5.46-11.7l.07-.91c.81-.54,1.87-.77,3.19-.7,2.72.4,6.47,1.55,8.09,4.05l2.82,13.44,15.4.07Z"/>
    <path class="st22" d="M28.48,36.34c-.03,1.78-.18,3.55-.45,5.3-1.45,1.79-2.24,3.95-2.51,6.23-.21,7.13-2.81,13.37-6.67,19.1-.82,1.91-1.06,3.83-.73,5.76,1.27,3.02,2.75,5.98,4.45,8.88,1.61,4.67,3.3,8.85,8.79,8.9,2.99-.01,5.96-.35,8.9-1l.8.43c.15.17.71.37.61.84-3.87,1.39-7.54,2.37-11.76,2.23-5.08-.17-11.09-1.63-14.57-5.52-3.79-3.53-6.89-7.53-9.19-12.16-1.01-2.03-.8-4.17.09-6.18,3.64-5.5,5.35-11.01,5.74-17.62,1.33-6.4,3.68-10.85,9.29-14.45,2.05-1.32,5.06-3.1,7.43-2.73-.11.5-.21,1.44-.21,1.99Z"/>
    <path class="st60" d="M114.38,105.72c-1.61,1.27-3.41,2.36-5.29,3.45-7.05,4.1-6.9,8.37-12.47,12.93-5.8,4.75-11.64,4-18.28,2.04-8.86-2.61-12.72-1.04-20.79-3.22-.5-.13-.92-.27-1.18-.58,8.07-2.05,15.67-4.67,22.96-8.59,2.74-1.47,5.08-3.03,7.64-4.73,1.44-.96,3.36-1.13,4.91-1.94,6.16,2.36,16.56,2.07,22.49.63Z"/>
    <path class="st44" d="M99.69,100.67c.75-.44.97-1.19,1.93-1.41,3.1-.71,6.05-2.53,8.09-5.19-.86-.83-1.76.14-2.62-.49,2.37-2.94,3.58-6.13,4.39-9.65,3.47-.34,7.02.85,8.93-3.34,2.31-5.07,3.89-10.46,4.81-16.01.79-4.78.2-12.28-6.08-12.36-.78-.01-1.54.02-2.28-.1,1.53-5.66,2.11-11.32,1.35-16.97,1.3,1.61,2.06,3.63,2.71,5.74,3.51,11.51,7.53,12.38,9.56,18.77,1.03,3.27.53,6.6-.65,9.79-1.3,3.52-2.42,6.87-3.23,10.56-1.19,5.4-4.22,9.87-8.62,13.23-4.76,3.63-12.46,7.16-18.28,7.42Z"/>
    <path class="st69" d="M111.4,59.72c-.67.17-2.07.06-2.67.02l-.21-1.33c2.38-7.6,1.26-14.35-1.16-21.69-1.07-3.27-3.59-5.72-6.14-7.82-1.32-2.15-3.55-3.42-5.86-3.78-1.59-6.27-4.56-9.14-11.19-9.81.56-.63,1.35-.78,2.06-1,6.39-1.93,11.4-.07,16.67,3.29,2.04.27,3.81.95,5.3,2.04,8.19,10.72,9.51,27,4.18,39.33-.07.16-.23.29-.4.42s-.38.24-.59.33Z"/>
    <path class="st57" d="M41.05,89.94c-5.86,1.02-14.62,3.46-17.42-4.21-1.29-3.54-2.95-6.77-4.91-9.97-1.72-2.81-1.85-5.95-.32-8.8l3.46-6.46c4.18-7.8,1.48-13.56,5.27-18.62.71-.95,1.32-1.37,1.09-2.88-.12-.82-.22-2.02.25-2.64v5.44c-.02,6.66,2.86,12.8,6.44,18.53-3.19,2.44-2.23,4.69-2.04,8.31-3.52-2.6-7.55-3.86-11.78-3.21-1.31.2-2.13,1.32-1.9,2.68.5,2.94,1.46,5.7,2.75,8.37,3.44,7.18,10.96,4.13,19.11,13.48Z"/>
    <path class="st44" d="M74.89,16.31c-5.95,2.21-9.97,5.1-12.29,11.01-5.93-2.46-10.86-.76-16.15,2.23-.75.43-1.33,1.14-1.54,1.99-1.34,5.21-.61,10.51,1.92,15.26-.12,4.6-1.16,8.89-2.91,12.97-1.51.14-2.65-.06-3.82-.04-4.71-9.41-4.7-19.16,1.26-28.19,2.39-3.63,5.95-5.9,10.22-6.73,3.3-.64,6.03-1.86,8.64-3.94,3.89-3.09,9.93-5.55,14.68-4.55Z"/>
    <path class="st36" d="M100.3,105.74c0-.12-.06-.33.01-.43.08-.12.32-.21.57-.2,5.45.36,13.69-1.59,18.74-3.64,10.23-4.15,17.99-10.51,19.61-22.04.58-4.13,1.49-7.83,3.41-11.56,1.02-1.99,1.52-4.36.82-6.47-.61-1.85-1.99-3.12-3.15-4.63-4.54-5.91-3.73-11.76-5.84-18.06-.07-.22.05-.59.2-.56,3.13,6.14,2.63,11.52,9.24,17.73,7.63,7.17,2.8,6.52,1.2,19.33-.46,3.71-1.25,7.25-2.91,10.61-2.32,4.71-5.8,8.59-10.22,11.52-9.43,6.26-20.54,8.99-31.68,8.41Z"/>
    <path class="st68" d="M59,136.5c.26-.22.79-.1,1.22,0,4.94,1.27,8.23.16,13.18-1.07,12.36-3.07,18.95,2.06,26.33.29,1.95-.47,3.53-2.31,4.39-4.05,3.29-6.67,9.44-7.57,14.01-14.98,2.33-3.77,3.07-8.25,2.22-12.43.3-.24,1.01-.68,1.21-.36.75,1.25.78,2.76.95,4.22.61,5.23-.82,10.19-4.15,14.2-4.88,5.89-8.72,7.66-11.61,15.49-.76,2.05-2.49,3.09-4.68,2.86-7.76-.81-12.39-5.53-24.14-3.46-6.62,1.17-12.72,2.3-18.92-.72Z"/>
    <path class="st40" d="M108.73,59.74c-1.17-.08-3.18.27-4.48-.04-2.63-4.45-5.31-10.16-6.16-15.19,1.99-3.19,3.38-6.45,3.74-10.25.15-1.58.25-4-.6-5.37,2.9.57,5.55,4.76,6.7,7.6,3.01,7.5,3.33,15.7.81,23.25Z"/>
    <path class="st17" d="M105.81,93.83c-4.57-.22-8.71-.91-13.03-1.8l-16.83-3.49,13.32-4.72,21.22.05c-.75,3.68-2.24,6.93-4.67,9.96Z"/>
    <path class="st3" d="M28.69,34.35c-8.98,2.82-15.07,8.41-16.27,18.28-1.1,9.04-1.33,9-5.52,16.54-1.12,2.02-1.08,4.29.04,6.43,2.28,4.31,5.22,8.34,8.39,11.89-4.54-3.58-8.28-8.32-11.42-13.28-1.65-2.62-1.49-5.44-.15-8.13,4.05-8.15,2.74-9.82,4.34-17.52,1.92-9.27,12.09-14.21,20.62-15.03.2.11,0,.64-.03.82Z"/>
    <path class="st3" d="M14.11,88.14c-2.85,4.57-4.28,10.57.73,14.51l5.35,4.2c2.14,2.49,4.12,4.97,6.61,7.15,5.96,5.25,16.17,5.96,23.83,5.77.4-.01.85,0,.89.32-9.41,1.67-24.33,1.3-31.81-5.26-3.28-2.87-6.2-5.96-8.92-9.34-4.84-6.02-2.4-13.45,2.7-17.95.23-.21.67.53.62.59Z"/>
    <path class="st38" d="M81.03,100.83c6.59-1.49,10.22.23,17.39-.63-4.03,2.91-8.47,4.83-13.36,6.16-15.85,4.3-30.54-.15-40.52-13.11,2.98,2.33,5.61,4.69,9,6.34,6,3.13,12.64,4.28,19.26,2.93l8.24-1.68Z"/>
    <path class="st37" d="M44.64,139.79c-4.66.19-9.47.42-13.86,2.18-.62.12-.92-.1-1-.74,2.87-7.18,9.06-13.59,15.85-17.03,1.9,3.75,4.26,6.74,7.34,9.53-1.63,3.21-4.87,5.29-8.32,6.07Z"/>
    <path class="st41" d="M91.54,42.35c-.3.56-.51,1.22-1.1,1.53l-.44-.53c.97-4.68-1.6-9.05-4.35-12.6-.73-2.42-3.15-5.87-6.41-5-3.37-2.34-7.73-3.88-11.22-2.32-.58-.28-.55-.53-.12-.95,3.92-3.78,12.02-4.73,17.2-4.27,10.14.89,8.94,17.16,6.43,24.14Z"/>
    <path class="st16" d="M68,59.39l-.47.12c-3.92-4.73-7.83-9.51-11.71-14.34-1.03-.66-1.72-1.41-2.09-2.25,2.13-.76,7.34,2.27,9.55,3.45,9.37,5.02,13.89-.5,22.62,1.75-3.37,2.63-6.95,4.7-10.6,6.89l-7.3,4.38Z"/>
    <path class="st50" d="M55.44,55.55c-6.38-6.22-10.67-15.2-9.23-24.29.44-1.1,5.39-3.04,6.62-3.47,2.78-.96,5.8-.99,8.49.23-6.11,1.09-10.63,6.85-9.54,13.13,1.2,6.94,8.1,14.37,13.54,18.56-5.51.74-6.08-.86-9.89-4.16Z"/>
    <path class="st44" d="M68.3,108.7c-1.81.61-3.67.51-5.73.52-7.77.05-15.12-2.49-20.79-7.81-3.36-3.16-7.08-5.24-11.62-6.33-.92-.22-1.95-.48-2.58-1.03,5.14.4,9.92-.73,14.66-2.39,5.95,9.26,15.45,15.3,26.06,17.04Z"/>
    <path class="st29" d="M8.14,22.91c-.03-1.19-.33-2.4-.9-3.63-.14-.88.1-1.32.74-1.33,6.35,2.72,13.94,9.1,18.34,14.8-4.24.94-7.92,2.13-11.32,4.51-2.04-1.41-3.37-3.4-4.14-5.74l-2.72-8.62Z"/>
    <path class="st10" d="M138.91,106.32c1.89,2.71,3.58,5.55,5.07,8.51.58,1.23.5,1.99-.25,2.28l-8.82-3.81c-3.96-1.71-7.77-3.34-11.34-5.77-.21-1.51-.56-2.66-1.06-4.25l5.18-2.06c4.09-1.63,8.49,1.92,11.22,5.1Z"/>
    <path class="st46" d="M100.31,59.73l-30.72.06c2.99-2.07,6.22-2.94,9.49-3.99,7.49-2,11.44-3.44,17.05-8.67.65.96,1.01,2.16,1.1,3.59.84,2.9,2.01,5.66,3.51,8.27l-.42.74Z"/>
    <path class="st5" d="M127.79,7.65c-2.79,6.6-7.53,11.94-13.16,16.39l-4.09-6.89c-.44-.73-1.55-.49-2.18-1,1.25-2.78,3.31-4.82,5.76-6.09,3.08-.85,6.24-1.48,9.47-1.89l1.37-.45c1.73-1.13,2.67-1.16,2.83-.07Z"/>
    <path class="st51" d="M111.4,59.72c1.79-3.77,2.6-7.84,3.17-12.11.73-5.49.43-10.95-1.13-16.29-1.01-3.47-2.8-6.48-4.44-9.6-1.06-2.01-2.51-2.9-4.76-3.15-4.03-.45-6.86-6.2-17.4-4.05-.3.06-.65-.02-.61-.23,3.41-1.23,6.88-1.71,10.42-1.17,5.08.77,7.26,4.15,13.07,4.54,1.71,2.93,3.4,5.6,4.8,8.63,4.87,10.56,3.42,23.04-1.52,33.29-.3.55-1.24.03-1.61.13Z"/>
    <path class="st68" d="M104.81,96.82c-1.61-.11-3.24-.28-4.96-.56l-13.35-2.11-12.17-1.64c-8.42-1.14-16.38-3.71-23.12-8.64.95,0,2.26-.32,3.29.03,3.31,1.12,6.33,2.4,9.81,3.13l32.63,6.79c3.58.74,6.92.97,10.58,1.14-.67,1.14-1.83,1.34-2.7,1.86Z"/>
    <path class="st13" d="M143.73,118.37c.72.53.35,1.01-.45,1.26-3.59.87-7.28,1.66-10.97,2.24-3.64-.12-7.17-1.28-10.2-3.64,1.18-2.98,1.57-5.85,1.57-9.36,3.57,2.24,7.09,3.67,10.73,5.32,3.2,1.45,6.43,2.48,9.32,4.19Z"/>
    <path class="st18" d="M22.8,19.11c3.46,1.65,6.48,4.02,9.04,7.21-1.31,1.78-2.05,3.64-2.63,5.76-.14.5-1.05.46-1.43.43-.45-.03-.79-.46-1.15-.94-4.23-5.63-9.82-9.59-15.52-13.42-.28-.74.11-.93.82-.99,3.71.22,7.34.87,10.86,1.95Z"/>
    <path class="st11" d="M128.95,19.02c-.75,3.51-2.63,6.49-5.41,8.69-2.51-.77-4.78-1-7.4-1.04-.52,0-1.14-1.46-.81-1.85.71-.85,1.82-1.43,2.67-2.17,4.11-3.57,7.09-7.88,9.87-12.37.55-1.15,1.11-.56,1.39.48.03,2.76-.07,5.51-.31,8.26Z"/>
    <path class="st8" d="M77.28,55.16l5.37-3.57c7.65-4.71,17.41-13.9,16.17-23.81,4.57,3.73.85,12.98-1.99,16.77-3.25,4.35-7.82,7.17-12.92,8.88-2.19.56-4.08,1.37-6.63,1.73Z"/>
    <path class="st5" d="M29.65,138.63l-.72-.37c-.34-5.59.99-12.74,5.23-16.66,3.53.29,6.74.58,10.17.29.62-.05.93,1.26.4,1.54-6.63,3.49-11.43,8.89-15.08,15.2Z"/>
    <path class="st51" d="M91.54,42.35c-.5-.47.66-2.29.87-5.22.35-4.87.67-12.58-2.8-16.39-1.38-1.52-3.5-1.86-5.46-2.04-5.65-.51-11.04.91-15.68,4.07-.27.18-.41.42-.46.65l-2.99,1.34c3.83-7.01,13.71-9.11,20.9-8.2,11.38,1.45,9.58,18.25,5.6,25.78Z"/>
    <path class="st9" d="M54.21,9.45c-1.05.77-6.39-.63-8.17,1.4-2.89,3.28-.84,9.29-8.32,14.7-2.25,1.63-7.01,5.54-7.47,8.4-.21.05-.3-.08-.26-.22.46-4.1,2.61-7.43,5.63-9.98,5.41-4.55,4.86-7.8,6.59-13.43,1.44-4.7,8.36-1.16,12.01-.87Z"/>
    <path class="st3" d="M83.62,46.4c-2.69.19-5.08.13-7.61.67-9.06,1.73-11.76-1.95-19.43-5.1,2.66-.38,5.21-.13,7.91.3,6.52,1.04,12.83,2.37,19.14,4.13Z"/>
    <path class="st15" d="M58.82,59.7l-13.84.08c1.53-3.78,2.32-7.32,2.88-11.32,2.97,4.59,6.51,7.9,10.96,11.24Z"/>
    <path class="st56" d="M58.38,40.71c-1.98.02-3.62.27-5.47,1.13-1.49-5.72,2.3-11.51,8.29-12.76-1.76,3.84-2.74,7.4-2.83,11.62Z"/>
    <path class="st45" d="M68,59.39c-.4.24-.62.63-1.13.25-5.2-3.97-11.36-10.15-13.52-16.46-.07-.2.27-.26.37-.27,2.72,1.26,4.97,4.76,6.99,7.31l7.28,9.17Z"/>
    <path class="st70" d="M81.81,44.86l-7.92-2.05,5.59-.65c2.52-.29,4.69-1.88,5.93-4.03l2.64,7.22c.16.44.17.89-.01,1.09-.87,1.01-2.63-.65-6.23-1.58Z"/>
    <path class="st59" d="M122.88,55.5c.51,3.14-6.17,4.58-8.74,4.23.78-2.24,1.75-4.03,2.31-6.39,1.83-.54,6.07-.07,6.43,2.16Z"/>
    <path class="st4" d="M80.24,28.08c1.27.73,2.16,2.08,1.59,3.7-.79-.78-1.61-1.24-2.5-1.66-3.24-1.72-7.16-2.47-10.76-1.52-1.47.8-3.22,1.1-4.16,2.68-.5.55-1.33,1.05-1.84.28-.6-1.27,1.12-2.87,2.12-3.73,4.69-4.03,10.96-3.71,15.55.23Z"/>
    <path class="st39" d="M90.44,43.88c-.23.55-.51,1.1-1.31,1.5l-3.11-9.07c.11-1.91.15-3.81-.38-5.56,3.19,1.46,6.31,9.51,4.79,13.14Z"/>
    <path class="st31" d="M24.9,66.3c-.49.53-2.01.14-2.33.47-.16.17-.5.63-.36.98l3.71,8.78c.68,1.61,1.71,2.81,2.61,4.07-2.51-.52-4.62-2.33-5.75-4.78-1.16-2.52-2.14-5.08-2.57-7.81-.39-2.5,3.49-1.72,4.68-1.72Z"/>
    <path class="st33" d="M76.13,83.85c-1.63,1.63-3.7,2.19-5.48,3.65-4.44-1.03-8.68-1.9-12.96-3.56l18.44-.09Z"/>
    <path class="st52" d="M80.24,28.08c-4.14-2.4-8.83-3.66-13.22-1.14-2.05,1.18-3.53,2.67-4.45,4.64l.24.9c-1.01,2.07-1.95,4.2-2.34,6.49-.39.71-1.09.65-.9-.14.16-4.86,2.97-12.64,8.52-14.22,3.97-1.13,8.07-.04,11.29,2.4.45.34.76.64.86,1.08Z"/>
    <path class="st20" d="M100.31,59.73c-.07-.6-.42-1.11-.76-1.74-1.84-3.42-3.33-7.08-3.43-10.85.47-.56.63-1.11,1.14-1.52,1.23,5.13,3.33,9.55,5.75,14.05-1.02.31-1.88.06-2.71.06Z"/>
    <path class="st65" d="M85.11,33.98c.38,4.7-3.81,7.72-8.26,7.38,5.3-2.39,7.4-8.05,5.4-13.78,2.21,1.33,2.67,4.01,2.86,6.4Z"/>
    <path class="st67" d="M55.44,55.55c-7.11-6.17-12.49-15.05-9.23-24.29-.08,8.69,2.8,17.32,9.08,23.73.16.16.35.19.42.37.04.11-.11.28-.27.19Z"/>
    <path class="st30" d="M34.16,121.6c-2.31,3.01-3.65,6.76-4.29,10.74-.35,2.16-.85,4.28-.22,6.29l-1.42,3.67c-.73-7.45-.23-15.3,5.2-20.57.32-.31.49-.16.73-.14Z"/>
    <path class="st71" d="M97.59,27.74c1.33,3.98-1.46,9.93-4.15,12.88,1.68-4.65,2.41-9.22,1.96-14.24.98-.3,1.86.37,2.19,1.36Z"/>
    <path class="st53" d="M79.84,35.49c-.75-2.55-2.91-3.54-5.29-3.01-2.18.48-3.7,1.85-5.4,3.32,1.43-3.72,5.55-5.63,9.37-4.89,1.2.23,2.71,1.06,3.14,2.21.49,1.31-.52,2.68-1.07,3.66-.49-.24-.54-.75-.74-1.28Z"/>
    <path class="st34" d="M85.93,84.03c-3.45,1.38-7.01,2.41-10.66,3.64-1.07.36-2.17.72-3.12-.06l6.58-3.81c2.36.16,4.52-.24,7.19.23Z"/>
    <path class="st28" d="M69.13,40.77c.74.24,1.18,1.04,1.87,1.53l-8.47-1.3c.47-1.89,1.06-3.59,1.26-5.53.07-.63.5-1.1.6-1.53l.59.41c.44,2.55,2.15,4.83,4.15,6.42Z"/>
    <path class="st64" d="M67.89,35.5c-.47.71-1.27-.49-1.37-.92-.53-2.14.25-4.13,2.38-4.8,1.6-.51,3.41-.49,4.94.55-2.79.99-4.43,2.86-5.95,5.17Z"/>
    <path class="st54" d="M75.69,38.52c1.24.08,2.2-.2,3.33.02-1.14,1.62-4.56,2.88-6.57,3.93-1.54-1.53-3.14-2.87-4.1-4.63l.43-.27c2.16.65,4.36,1.05,6.6,1.2l.31-.26Z"/>
    <path class="st63" d="M64.41,31.3c-2.2,3.73-1.33,5.48-2.99,9.31-.32.36-1.55.33-1.88.01-.48-.45.02-1.3.04-1.79.02.32.32.26.33-.03.44-2.7,1.6-4.96,2.67-7.22.56-.3,1.21-.33,1.84-.28Z"/>
    <path class="st30" d="M127.79,7.65c-.27-.17-.81-.32-1.19-.09-2.22,1.36-4.59,1.62-7.19,1.69-1.81.05-5.26,1.7-5.29.81,5.12-2.45,9.82-2.01,14.78-5.61-.1,1.26-.68,2.19-1.11,3.2Z"/>
    <path class="st0" d="M44.64,139.79c-6.35,1.43-10.33.34-15.67,4.23.03-1.16.46-1.96.81-2.79,1.13.54,2.09-.4,3.27-.7,2.21-.56,9.94-1.49,11.59-.74Z"/>
    <path class="st48" d="M132.31,121.87c3.1-1.21,6.48-1.67,9.86-2.64.67-.19,1.52-.02,1.56-.85,1.17.7,2.61.66,3.57,1.72-5.52.45-9.88,1.84-14.99,1.78Z"/>
    <path class="st58" d="M22.8,19.11c-.52.59-1.28-.02-1.94-.17l-3.45-.73-4.48-.44c-.69-.07-1.48-.06-1.82.39-1.48-.7-2.94-.97-4.11-1.96,5.27.08,11.3.77,15.8,2.92Z"/>
    <path class="st12" d="M143.73,117.1c.36-2.86-3.75-8.25-4.83-10.79,3.81,4.45,5.13,8.23,8.27,12.21l-3.44-1.42Z"/>
    <path class="st6" d="M128.95,19.02c-.68.07.77-10.16-1.08-8.74l1.85-4.03c.25,4.28.12,8.6-.77,12.77Z"/>
    <path class="st26" d="M79.33,30.13c-1.32-.62-2.98.08-4.37-.41-2.17-.76-4.18-1.56-6.39-1.11,3.1-1.69,8.72-1.03,10.76,1.52Z"/>
    <path class="st43" d="M73.6,37.05c-.98.16-2.16-.42-3.26-.84,1.07-1.62,2.99-2.78,5.03-2.77.13,1.38-.73,2.83-1.78,3.6Z"/>
    <path class="st49" d="M69.13,40.77c-2.19-.7-4.93-4.62-4.74-6.83.19-.86.3-1.5,1.38-2.55-1.03,3.51.99,6.3,3.37,9.37Z"/>
    <path class="st19" d="M75.69,38.52c.07.26.36.15.69.4-2.8.58-5.42-.13-8.03-1.07-.34-.4-.61-.64-.62-1.06,3.16.3,4.24,1.49,7.96,1.74Z"/>
    <path class="st23" d="M75.23,37.29c.34-.78.91-1.49,1.7-2.12.26-.67.65-.95,1.18-.85.97.81,1.3,1.93,1.26,3.04-1.51.15-2.87.36-4.14-.07Z"/>
    <path class="st72" d="M7.98,17.96c-.67,2.28,1.16,4.37.16,4.96-.61-2.35-1.87-4.13-3.04-6.15,1.17.26,1.99.81,2.88,1.19Z"/>
    <path class="st35" d="M78.11,34.32c-.91,2.02-1.53,1.69-2.88,2.97l-.67-.13c1.05-.95,1.85-2.19,1.87-3.73.79-.01,1.2.5,1.68.89Z"/>
    <path class="st21" d="M58.97,72.09l-6.85.18c-.1,1.4-.11,2.69.01,4.05l7.45.12c.35.26.31,1.29-.05,1.56h-9.29s-.06-12.99-.06-12.99l9.09.03c.38.04.37,1.52-.02,1.52l-7.14.15c-.09,1.24-.11,2.43,0,3.8l6.8.13c.24.16.29,1.14.05,1.44Z"/>
    <path class="st47" d="M70.94,72.08l-6.75.19c-.1,1.4-.07,2.69.01,4.08l7.49.09c.13.38.24,1.48-.1,1.54l-9.37.04v-13.01s9.08.04,9.08.04c.41,0,.41,1.55-.02,1.55l-7.11.11v3.81s6.71.14,6.71.14c.25.12.31,1.19.05,1.43Z"/>
    <path class="st62" d="M90.5,65.22c0-.42,1.45-.34,1.72-.03.17,2.51.05,5.35.05,7.94,0,3.37-2.52,5.35-5.74,5.22-2.84-.11-5.14-1.92-5.13-4.93l.03-8.26c.49-.27,1.27-.25,1.67.01l.12,7.98c.03,2.27,1.71,3.68,3.9,3.54,1.9-.12,3.24-1.34,3.27-3.27l.12-8.2Z"/>
    <path class="st62" d="M115.82,68.45l-4.23,10.88c-.63,1.61-2.32,2.55-3.83,1.88-.2-.23-.17-1.18.1-1.27.62-.2,1.39-.04,1.81-.58.34-.44.76-1.21.46-1.96l-3.59-8.95c.57-.15,1.71-.35,1.9.06l2.77,7.35,2.77-7.39c.3-.35,1.33-.17,1.84-.02Z"/>
    <path class="st14" d="M47.85,76.44c.65,0,.59,1.36.2,1.64l-8.36.04-.08-12.98c.67-.21,1.27-.26,1.87-.02l.08,11.3h6.28Z"/>
    <path class="st24" d="M97.08,77.8c-.01.37-1.23.32-1.6.03v-9.35c.23-.29,1.24-.21,1.51-.09s.06.73.26,1.21c.86-.73,1.7-1.6,3.07-1.5.45.03.66,1.52.22,1.6-1.52.24-3.26.81-3.31,2.56l-.16,5.55Z"/>
    <rect class="st25" x="102.86" y="68.3" width="1.78" height="9.71" transform="translate(-.13 .18) rotate(-.1)"/>
    <path class="st27" d="M78.56,73.92c-1.72.23-3.25.21-4.8.01-.41-.22-.29-1.3-.16-1.65l4.93.09c.38,0,.44,1.5.03,1.55Z"/>
    <path class="st55" d="M104.8,66.79c-.71.19-1.31.13-1.96-.09-.25-.75-.19-1.4-.12-2.2.73-.06,1.3-.06,2.04,0l.04,2.29Z"/>
    <rect class="st21" x="102.99" y="64.78" width="1.5" height="1.79"/>
  </g>
  <rect class="st2" x="25.65" y="59.53" width="100.6" height="29.32" rx="14.66" ry="14.66"/>
  <g>
    <path d="M66.25,72.91c-.98-.31-1.89-.27-2.81-.2l-.02,5.64c0,.24.18.8.38.9.56.28,3.34.37,4.52-.49.95-.7,1.12-1.82,1.98-2.95.15,1.46-.09,2.84-.39,4.32h-10.82c.43-.62,1.35-1.06,1.35-1.54l.02-11.66c0-.73-.72-1.02-1.41-1.8l10.47-.04c.16,1.32.26,2.54.27,3.87-1.07-1.22-1.14-2.75-2.74-2.99-1.1-.17-2.35-.12-3.61-.11v5.97c.95.1,1.83.16,2.76-.07.75-.19.8-1.15,1.52-1.88.12,1.73.13,3.2.06,4.95-.73-.69-.73-1.66-1.53-1.91Z"/>
    <path d="M53.96,72.91c-.97-.32-1.86-.25-2.82-.19l.07,6.51c1.4.26,2.79.34,4.07-.05,1.57-.47,1.68-1.98,2.75-3.36.07,1.45-.11,2.86-.36,4.31h-10.87c.95-.89,1.35-1.38,1.35-2.47l-.03-10.72c0-.73-.66-1.02-1.37-1.81l10.5-.03c.16,1.29.26,2.51.26,3.81-2.23-3.43-1.91-3.02-6.38-3.05v6.06s2.26,0,2.26,0c1.12,0,1.18-1.14,2.02-2.02l.04,4.91c-.7-.63-.73-1.64-1.49-1.9Z"/>
    <path d="M87.72,65.18l3.9-.09c.08,0,.31.38.24.41l-.4.15c-.57.21-1.16.83-1.17,1.54l-.06,8.63c-.01,1.96-1.25,3.66-3.04,4.25-1.68.55-3.41.48-4.99-.27-1.57-.74-2.69-2.31-2.69-4.11l-.03-8.25c0-1.16-.47-1.37-1.64-2.28h6.15c-.52.49-.81.68-1.45,1.09-.15,3.24-.21,6.62.03,9.87.12,1.6,1.21,2.72,2.64,2.91,2.24.31,4.15-1.17,4.16-3.51l.04-8.09c.02-1.12-.66-1.29-1.7-2.24Z"/>
    <path d="M45.97,75.91c.15,1.31-.08,2.79-.35,4.22l-10.87-.02c1-.78,1.53-1.18,1.53-2.23v-10.45c0-1.06-.41-1.39-1.47-2.24,2.13-.11,4.01-.12,5.99.06-.98.75-1.48,1-1.48,1.93v12.06c1.45.25,2.96.36,4.22-.2s1.31-1.87,2.43-3.12Z"/>
    <path d="M115.25,71.7l-4.36,11.32c-.55,1.44-1.92,2.37-3.36,2-.69-.18-1.14-.71-1.17-1.25-.03-.6.4-1.41,1.14-1.29.64.1,1.21.53,1.95.98.66-.74,1.29-1.95,1.51-3.03l-3.67-8.9c-.31-.75-.75-1.16-1.5-2.03h5.12s-.76.93-.76.93c-.14.17-.02.81.07,1.03l2.22,5.27,2.02-5.39c.08-.21-.01-.86-.19-1l-.93-.79,3.82-.02c-.97.83-1.53,1.2-1.91,2.18Z"/>
    <path d="M95.95,73.51l-.03,4.38c0,1.05.41,1.35,1.46,2.2l-5.37.03c.7-.8,1.18-1.23,1.18-1.98v-5.87c.01-.79-.42-1.26-1.3-1.75l3.85-1.34.23,2.22c.72-1.28,1.77-2.43,3.4-2.08.45.1,1.05.73,1.11,1.13.09.55-.25,1.31-.7,1.52-1.05.5-1.56-.42-2.37-.8-.4-.19-1.46.94-1.47,2.33Z"/>
    <path d="M100.93,80.04c.67-.72,1.16-1.11,1.16-1.66v-6.11c.01-.79-.45-1.3-1.2-1.82l3.93-1.29.08,9.45c0,.41.75.93,1.22,1.45-1.8.11-3.52.11-5.2-.02Z"/>
    <circle cx="103.42" cy="66.32" r="1.66"/>
    <rect x="71.69" y="73.06" width="5.7" height="1.4"/>
  </g>
</svg>