<?xml version="1.0" encoding="UTF-8"?>
<svg id="Layer_1" xmlns="http://www.w3.org/2000/svg" version="1.1" viewBox="0 0 136 132.47">
  <!-- Generator: Adobe Illustrator 30.1.0, SVG Export Plug-In . SVG Version: 2.1.1 Build 136)  -->
  <defs>
    <style>
      .st0 {
        fill: #d3bbca;
      }

      .st1 {
        fill: #e0deec;
      }

      .st2 {
        fill: #e0cfd7;
      }

      .st3 {
        fill: #e6b6ae;
      }

      .st4 {
        fill: #fdfdfb;
      }

      .st5 {
        fill: #f7c8b1;
      }

      .st6 {
        fill: #faeed4;
      }

      .st7 {
        fill: #e8e1e2;
      }

      .st8 {
        fill: #d5b7be;
      }

      .st9 {
        fill: #cfb4c0;
      }

      .st10 {
        fill: #e8dee8;
      }

      .st11 {
        fill: #f9edd5;
      }

      .st12 {
        fill: #fbeed3;
      }

      .st13 {
        fill: #e0deee;
      }

      .st14 {
        fill: #faedd1;
      }

      .st15 {
        fill: #e0deeb;
      }

      .st16 {
        fill: #d7bac0;
      }

      .st17 {
        fill: #fcecce;
      }

      .st18 {
        fill: #faedd0;
      }

      .st19 {
        fill: #dabac1;
      }

      .st20 {
        fill: #e6a396;
      }

      .st21 {
        fill: #d4b8c3;
      }

      .st22 {
        fill: #d2b9c3;
      }

      .st23 {
        fill: #f8cbb7;
      }

      .st24 {
        fill: #5e5f94;
      }

      .st25 {
        fill: #d4b7bd;
      }

      .st26 {
        fill: #d5b8c0;
      }

      .st27 {
        fill: #d1b8c7;
      }

      .st28 {
        fill: #e7a8a1;
      }

      .st29 {
        fill: #d7bac2;
      }

      .st30 {
        fill: #e0dfec;
      }

      .st31 {
        fill: #f8cab1;
      }

      .st32 {
        fill: #fcedce;
      }

      .st33 {
        fill: #edbdb1;
      }

      .st34 {
        fill: #d6bbc3;
      }

      .st35 {
        fill: #fcfcf9;
      }

      .st36 {
        fill: #f4cab6;
      }

      .st37 {
        fill: #fceed1;
      }

      .st38 {
        fill: #dfdeeb;
      }

      .st39 {
        fill: #de9f9b;
      }

      .st40 {
        fill: #606195;
      }

      .st41 {
        fill: #e6a298;
      }

      .st42 {
        fill: #e0e0ec;
      }

      .st43 {
        fill: #e0dfeb;
      }

      .st44 {
        fill: #dedceb;
      }

      .st45 {
        fill: #e1dfeb;
      }

      .st46 {
        fill: #5f5f95;
      }

      .st47 {
        fill: #fceecf;
      }

      .st48 {
        fill: #e0aca8;
      }

      .st49 {
        fill: #ebb9ae;
      }

      .st50 {
        fill: #d8b9c0;
      }

      .st51 {
        fill: #f5eee0;
      }

      .st52 {
        fill: #d4b8c1;
      }

      .st53 {
        fill: #fefefd;
      }

      .st54 {
        fill: #f5eddc;
      }

      .st55 {
        fill: #facbb1;
      }

      .st56 {
        fill: #c8a7b6;
      }

      .st57 {
        fill: #e2e0ec;
      }

      .st58 {
        fill: #dbb0b4;
      }

      .st59 {
        fill: #656597;
      }

      .st60 {
        fill: #fcedd1;
      }

      .st61 {
        fill: #e09e97;
      }

      .st62 {
        fill: #cb959d;
      }

      .st63 {
        fill: #fdeecf;
      }

      .st64 {
        fill: #fdfdfc;
      }

      .st65 {
        fill: #e6aea2;
      }

      .st66 {
        fill: #fbedd4;
      }

      .st67 {
        fill: #5e5e93;
      }

      .st68 {
        fill: #f0e6e3;
      }

      .st69 {
        fill: #d3b8c1;
      }

      .st70 {
        fill: #d4b5bd;
      }

      .st71 {
        fill: #606093;
      }

      .st72 {
        fill: #fbeed0;
      }

      .st73 {
        fill: #cdb3be;
      }

      .st74 {
        fill: #dea6a6;
      }

      .st75 {
        fill: #d4bbc7;
      }

      .st76 {
        fill: #e4dfe6;
      }

      .st77 {
        fill: #d6b8c0;
      }

      .st78 {
        fill: #fbedd1;
      }

      .st79 {
        fill: #5e587f;
      }

      .st80 {
        fill: #d5b8c1;
      }

      .st81 {
        fill: #e5a399;
      }

      .st82 {
        fill: #faefd6;
      }

      .st83 {
        fill: #d7bac3;
      }

      .st84 {
        fill: #d3b9c0;
      }

      .st85 {
        fill: #605d82;
      }

      .st86 {
        fill: #cfb6c1;
      }

      .st87 {
        fill: #e5a39a;
      }

      .st88 {
        fill: #fceed0;
      }

      .st89 {
        fill: #fdefd0;
      }

      .st90 {
        fill: #d2b6c1;
      }

      .st91 {
        fill: #d5b8bf;
      }

      .st92 {
        fill: #636193;
      }

      .st93 {
        fill: #d6acb2;
      }
    </style>
  </defs>
  <path class="st85" d="M50.6,124.86c-3.18.63-6.07.4-9.02-.67-3.68-1.14-7.07-2.77-10.33-4.84l-10.46-6.65c-3.66-2.33-7.22-4.48-11.14-6.29-2.6-1.2-4.21-3.34-4.69-6.18-.92-5.41,2.89-10.89,2.09-12.73-.26-.61-2.33.63-3.53-1.59-1.33-2.46-2.29-5.13-2.48-8-.18-2.88.27-5.87,1.52-8.43.69-1.41,2.37-1.73,3.92-1.9-.79-3.82-1.18-7.63-1.29-11.58-.1-3.8-.75-7.33-1.96-10.89-1.01-2.96-2.15-6.44.33-8.84.82-.79,1.68-1.51,2.66-2.14,6.55-4.23,7.16-8.74,12.99-7.46.42-2.81,1.35-5.22,2.94-7.39,1.84-2.51,3.35-5.07,4.93-7.75,1.33-2.26,2.68-4.4,4.46-6.28.85-.9,1.84-1.42,3.12-1.31s2.42.25,3.64.55c5.13,1.28,10.27,1.55,15.56,1.33,1.96-.08,3.74.02,5.58.62,4.67-3.69,10.85-4.91,16.47-3.05l4.2,1.4c1.24.41,2.46.52,3.76.26,8.04-1.61,14.62,3.43,20.32,8.35,3.25,2.8,6.54,5.3,10.25,7.45,1.07.62,2.04,1.28,3.04,1.94,1.17.78,1.55,2.05,1.04,3.46,2.12.4,3.96,1.25,5.67,2.54,5.58,4.25,6.33,9.98,7.39,16.45.79,4.88,1.69,9.58,2.89,14.37.41,1.63-.02,3.18-.51,4.72-2.92,7.19-11.03,14.9-17.46,19.08l4.54,14.77c.64,2.09,1.17,4.07,1.5,6.23.11.82,0,1.58-.51,2.22-2.6,3.29-5.67,5.98-9.14,8.34l-5.71,3.89c-3.59,2.44-6.71,5.23-9.67,8.4-1.01,1.08-2.02,2.13-3.38,2.74-4.59,2.07-11.07-.32-15.48-2.3-5.3-2.39-10.46-4.66-15.88-6.72-3.99,1.69-7.9,3.03-12.18,3.88Z"/>
  <path class="st47" d="M30,53.45l.26-.13,1.7.36c16.35.02,32.75.01,49.18-.02l.24.38,22.16.04.61-.22c2.26.87,4.93,2.55,6.57,4.34l.13.63c.16-.09.34-.11.54-.07,2.3-4.52,3.68-1.48,2.5,1.89l-.19,2.25.43.19.55,2.32c1.13,3.87,1.93,7.71,1.79,11.68-.09,2.52-1.86,4.19-4.38,4.19l-83.14.04c-3.09,0-5.66-.79-7.83-3.01-4.35-4.45-6.24-11.35-4.02-17.43.97-2.65,1.95-5.25,3.13-7.76.9-1.92,2.8-2.38,4.64-1.57,1.72.76,3.39,1.6,5.16,1.89Z"/>
  <path class="st42" d="M7.51,70.97c1.11,6.27,5.75,11.28,10.92,14.94,3.33,2.42,6.69,4.78,10.1,7.07l.52.88c.45,4.54,4.34,6.83,8.42,8.15,5.3,1.72,10.57,3.13,16.02,4.32,3.18.69,6.24.86,9.46.42,2.89-.4,5.73-.86,8.43-1.76h1c2.65.61,5.34.95,8.04,1l.58.33c-.28,1.47-.94,2.8-2.04,3.99-1.23,1.33-2.56,2.48-4.13,3.52-6.07,4.01-12.61,7.09-19.58,9.23-2.46.75-4.78,1.29-7.32,1.5-4.81.41-11.46-2.94-15.58-5.32-7.74-4.47-14.21-9.66-22.25-13.31-.42-.19-.79-.43-1.02-.73.1-.51.58-.36,1.01-.23,3.79,1.21,7.61,2.82,11.17,4.6,4.8,2.52,9.64,4.99,14.53,7.41-6.52-4.9-13.19-9.63-19.99-14.21-3.94-3.39-5.55-5.58-6.39-10.77l-.24-5.22c-.37,1.27-.84,2.5-1.41,3.68l-.45-.1c.19-.69.68-2.93.11-3.45-.81-.74-2.36.59-3.47-1.46-2.67-4.92-3.15-9.89-1.15-15.19.59-1.56,2.19-2.05,3.8-2.22l.91,2.91Z"/>
  <path class="st42" d="M81.61,106.7c1.04-.82,2.24-1.45,3.6-1.9,5.27-2.66,10.09-5.87,14.48-9.64,1.37-1.51,2.86-2.79,4.48-3.83,4.47-1.44,8.37-3.54,11.56-6.99l.46.09,4.45,14.6c.56,1.83.97,3.55,1.31,5.41.12.67,0,1.34-.43,1.86-2.58,3.18-5.58,5.82-8.97,8.12l-5.52,3.75c-3.92,2.67-7.34,5.72-10.51,9.23-3.41,3.79-7.92,3.02-12.38,1.73-2.75-.89-5.27-2.01-7.94-3.22-4.19-1.9-8.29-3.6-12.64-5.27,3.93-1.82,7.46-3.56,10.89-5.83,3.06-2.06,6.25-4.5,7.15-8.12Z"/>
  <path class="st1" d="M63.69,10.03l-.29.53c-7.68,1.87-15.51,5.12-19.94,12.1l-.74.47-.41.41c-3.17.62-6.68,2.13-7.95,5.33-1.25.05-2.57.11-3.19,1.37-.78,1.59-1.37,3.31-1.76,5.04l-.48.51c-1.43,4.66-1.99,9.85-1.94,14.84l-.38.94-2.25-.83c-1.21-.48-2.38-.21-3.51.53-1.53-3.04-2.22-6.17-2.22-9.52,0-4.96.34-9.81,1.09-14.69.39-2.54,1.17-4.8,2.62-6.86,1.95-2.77,3.65-5.53,5.34-8.46,1.27-2.19,2.67-4.17,4.34-6.03.75-.84,1.64-1.26,2.78-1.15,1.32.13,2.59.34,3.92.65,4.38,1.03,8.71,1.38,13.22,1.28,4.99-.12,7.95-.4,11.74,3.55Z"/>
  <path class="st42" d="M115.98,67.72c-.02-1.28.12-2.54.42-3.8,0,0,.37-3.22,1.12-9.65l.8-2.7c.35-1.16.33-2.32-.42-3.25-.89-1.1-2.04-1.86-3.23-2.5-.32-.17-.42-.32-.31-.46,1.13-1.86,2.03-3.91,2.66-6.02,1.17-3.87,1.23-7.63,1.28-11.58-.01-.29.04-.96.32-.91,6.2,1.28,10.31,6.93,11.38,13.03l1.93,10.96c.49,2.8,1.04,5.46,1.8,8.19.46,1.64.35,3.23-.25,4.81-.7,1.84-1.61,3.48-2.78,5.11-3.89,5.45-8.72,10-14.27,13.75-2.39,1.62-4.8,2.9-7.56,3.83,1.54-1.55,2.97-2.99,4.33-4.73,2.2-.33,3.74-2.13,3.84-4.45.14-3.23-.3-6.52-1.07-9.63Z"/>
  <path class="st15" d="M40.43,81.93l.94.34c3.43,2.71,7.53,4.66,11.56,6.19,2.82,2.08,5.98,3.51,9.24,4.98l5.04,2.27-9.08.47c-.66.03-1.31.04-1.87.41,1.59.26,3.17-.02,4.75.09l3.33.13c3.42.91,6.89,1.63,10.4,2.17l.66.39c.03-.53.81-.06.97.24.1.08.29.02.55-.2.19-.04,2.81.92,2.59,1.22-.06.08-.15.12-.26.16-5.02,2.88-10.62,4.74-16.48,5.37-3.31.36-6.44.34-9.46-.55l.52-.43c3.14.2,6.28.17,9.4-.07-8.85-2.4-17.82-4.29-26.9-5.67,1.6.87,3.2,1.72,4.81,2.57l.07.47c-2.64-.64-5.27-1.46-7.65-2.87-2.82-1.68-4.5-4.73-3.84-7.85l.93.14c3.69,2.16,7.9,4.03,12.11,4.44l4.6.14c.17,0,.17-.12.1-.19-.09-.09-.19-.22-.36-.23l-4.24-.36c-2.09-.18-3.85-.96-5.55-2.15-5.19-3.64-10.69-8.05-14.63-13.12,1.89,1.07,3.72,1.53,5.84,1.53l11.93-.02Z"/>
  <path class="st57" d="M65.42,11.75c.34.01.46.21.29.5-3.18.76-6.1,2.02-8.76,3.76,5.04-.32,10.09-.87,15.03-1.91l.14-.42,7.62-1.55c1.13-.17,2.24.22,3.22.74l6.58,3.78c.14.09.18.25.11.51l.7-.03c1.15.71,2.36,1.27,3.64,1.67.26.16.48,0,.65-.49,1.82,1.57,5.06,2.64,6.02,3.85-.59.61-.76,1.13-.89,1.97-.55,3.46.48,8.49,1.41,11.86.34,1.21,2.16,7.29,2.95,7.75.16.09.34.12.52.13-.07,3.39-.8,6.53-1.96,9.59-.84.05-1.53.03-2.25.03-.58-.12-1.18-.14-1.79-.08l-.25-.42c.2-5.37-.07-10.87-2.32-15.83l-.27-1.36c-.06-1.64-.35-3.08-1.11-4.44-1.54-2.75-4.58-2.81-7.34-2.6h-1.17c-.87-.81-1.62-1.71-2.27-2.71-1-1.98-2.29-3.51-4.17-4.54-2.52-1.38-5.14-2.38-7.99-2.9-2.44-.45-4.83-.2-7.15.63-.84.3-1.68.52-2.42.85l-1.19.31c-4.68.03-9.5,1-13.5,3.51l-.7.02c-.67.41-2.31,0-1.88-.93.94-2.06,2.91-3.95,4.6-5.42.07-.06.19-.06.33-.04,4.94-3.42,9.93-4.77,15.6-5.76Z"/>
  <path class="st1" d="M16.58,27.16l.17,1.08c-1.52,8.04-.26,16.43,3.17,23.81l-.28.67c-1.14,2.66-2.17,5.18-3.13,7.83-1.2,3.32-1.29,6.73-.42,10.12.87,3.37,2.65,6.01,4.87,8.58,1.9,2.2,3.53,4.47,5.7,6.45l3.46,3.15c-5.15-.96-11-4.7-14.79-7.98-4.71-4.07-7.63-9.46-8.67-15.59-.62-3.62-.84-7.13-.97-10.8-.34-9.45-5.42-14.18-1.59-17.89,2.41-2.33,4.34-2.76,7.93-6.48,1.08-1.12,3.05-3.07,4.54-2.96Z"/>
  <path class="st42" d="M106.19,16l-.26.36c-1.52-.56-2.97-1.3-4.36-2.23,3.23,3.57,6.94,6.6,11.12,9.07l.79.85c.91.03,1.49,2.57.59,2.91l-.2,1.29c-1.16,3.4-1.9,6.88-1.46,10.47.37-.1.59-.09.71.33-1.24,3.11-2.57,6.18-4.63,8.84l-.44-.14c0-6.42-1.99-12.55-4.37-18.49-.52-2.32-1.15-4.62-2.11-6.88-.33-.76-.79-1.28-1.54-1.61-2.16-.96-4.08-2.18-5.87-3.71l-4.67-3.97c-1.9-1.62-4.09-2.74-6.43-3.58-1.78-.64-3.48-.75-5.35-.45l-6.94,1.11c-1.81.15-3.5.49-5.28.86-1.61-1.78-3.25-3.25-5.39-4.4,4.41-3.21,9.76-4.14,14.89-2.87,3.32.71,5.57,2.54,8.92,1.88,5.33-1.05,10.2.84,14.48,3.95,2.77,2.01,5.38,4.11,7.79,6.4Z"/>
  <path class="st79" d="M49.83,17.51c-1.79,1.73-3.62,3.44-4.79,5.81.46.38,1.21.25,1.75.59l.47-.15c.53.32,1,.67,1.4,1.07,2.19-2.28,5.61-2.45,8.58-2.39.69-.31,1.35-.69,1.97-1.15.52-.41.92-.44,1.21-.1.05.12.11.24.18.35-.18.49-.57.91-1.18,1.25,2.73.45,5.42,1.14,8.08,2.08l.43.58c.61-.09,1.16.31,1.59.71,1.34-.85,2.87-.75,4.38-.53.42-.55,1.53-.03,2.1.25,2.57,1.26,3.53,4.04,3.64,6.76l-.37.47.29.22c-.63,1.57-.96,3.14-.99,4.7,2.01,3.47,3.77,7.11,5.28,10.89l1.68-2.15.47.02.38.17.23.41c-1.36,2.03-2.86,3.96-4.51,5.77l-.67.16c-.23.23-.18.46-.06.76l-48.03.04c-1.24,0-2.25-.24-3.35-.64.02-.15.1-.28.22-.37l.42-.27c.89.18,1.79.26,2.71.23-2.91-5.04-6.21-11.34-4.42-17.25.28-1.86,1-3.71,1.77-5.47.6-1.36,1.89-1.95,3.47-1.72.55-1.68,1.65-2.8,3.16-3.6,1.69-.89,3.36-1.8,5.38-1.87.38-.39.89-.49,1.53-.29.98-2.17,2.84-4.23,4.76-5.64l.64-.03c.05.11.11.22.18.33Z"/>
  <path class="st30" d="M91.76,83.88c-5.49,3.68-12.62,5.18-19.15,6.23l-12.29,1.97c-1.71-.8-3.26-1.54-4.8-2.62l16.11-7.52h22.88c-.79.9-1.78,1.35-2.75,1.94Z"/>
  <path class="st37" d="M9.08,105.21c-3.75-1.73-4.22-6.78-3.15-10.29l1.39-4.54c.82-.5,1.4-4.95,2.2-4.5l.24,5.59c.11,2.61,1.08,5.49,2.83,7.54,1.11,1.31,2.23,2.63,3.67,3.62l9.11,6.29,4.05,2.83,6.61,4.93c.46.34.99.64,1.17,1.3-2.48-.9-4.6-2.11-6.87-3.28l-7.1-3.67c-2.73-1.41-5.33-2.8-8.23-3.84-1.65-.59-3.25-1.09-4.84-1.77-.38-.17-.78-.17-1.08-.21Z"/>
  <path class="st61" d="M76.7,96.63c-5.41.76-10.27-1.79-15.14-4.17l12.74-2.06c5.92-1.1,11.69-2.29,16.94-5.45-3.33,5.33-8.11,10.78-14.53,11.69Z"/>
  <path class="st77" d="M100.03,81.94c-.04.24-.08.48-.15.72s-.14.45-.26.64c-3.07,4.93-6.91,9.81-11.18,13.7.05-.4.1-.31.08.15-2.12.48-4.25,1.15-6.35,1.92-1.11.4-1.99,1.18-2.93,1.72.67-.04-3.59-1.35-2.88-1.18.33-.02.06-.2-.83-.54l-.84-.98c-.48.57-1.06-.1-.37-.41.62-.41,1.4-.35,2.2-.46,4.02-.53,7.43-2.64,10.25-5.51,2.3-2.33,3.8-5.06,5.89-7.58,3.94-2.88,2.29-2.2,7.38-2.2Z"/>
  <path class="st16" d="M116.19,84.43l-2.9,2.68c-3.04,2.81-8.59,4.23-9.56,4.85-1.44.93-2.44,2.42-3.79,3.49l-4.63,3.64c-4.17,3.28-8.77,5.79-13.69,7.6.35-1.98-.08-3.94-1.29-5.7.64-.39,1-1,1.58-1.25,4.47-1.91,9.77-2.22,15.31-4.85,3.83-1.82,7.11-4.28,10.22-7.16,3.01-1.02,5.78-2.26,8.48-3.96.3.26.22.48.27.65Z"/>
  <path class="st45" d="M83.91,27.54c-.21.4-.33.33-.63.08-2.37-6.14-10.27-7.86-16.21-7.76,2.74.61,5.33,1.55,7.75,2.84,1.13-.27,2.5.95,3.36,1.71,2.03,1.79,4.2,5.79,5.41,8.27l-.07.61c.46.22.79.67.99,1.33l.87,1.34.48-.35c.67,3.16.98,6.43.97,9.73,0,.48-.62.89-.82,1.21l-.53-.6c-.99-4.56-2.79-9.05-6.05-12.39l-.15-.46c0-1.81-.37-3.6-1.37-5.1s-2.39-2.04-3.99-2.37l-3.09-.16c-1,.21-1.97.2-2.89-.02-1.52-.58-3.03-1.15-4.71-1.49l-4.84-.99c.72-.48,1.43-1.05,2.21-1.43,3.55-1.71,6.91-3.19,11.1-2.38,2.84.55,5.51,1.53,8,2.97,2.36,1.37,3.17,3.13,4.21,5.41Z"/>
  <path class="st42" d="M114.67,65.43c-.25-.84-.82-1.47-.97-2.51.18-1.82.42-3.62.72-5.41.39-.51.93-6.03.61-5.99-.68.08-3.27,5.96-3.61,6.99l-.57.34c-2.15-1.91-4.47-3.99-7.31-4.75,3.06-2.56,5.59-5.56,7.62-9.19,2.47.92,8.32,3.38,6.58,6.64-1.48,4.47-3.66,9.21-3.07,13.88Z"/>
  <path class="st38" d="M111.58,82.69c-.23-.27-3.59-.28-3.88-.09-2.49,2.94-4.8,6.04-6.95,9.28-.15-.22-.13-.14.07.23-3.69,2.54-7.93,4.04-12.3,5.04-.09-.08-.25-.08-.35-.22,4.64-4.51,8.47-9.59,11.87-14.99h12.17c-.02.43-.44.51-.63.74Z"/>
  <path class="st15" d="M95.09,37.72c-.32-.16-.45-.47-.4-.95-.29-1.14-.84-2.79-1.02-.58-.37,3.4-.97,6.96-3.32,9.61-2.12,2.3-4.14,4.66-6.04,7.06.29.02.45.06.55.39-.2.41-.62.13-.97.23-.65.23-1.23.23-1.73,0-.25-.02-.54,0-.72-.19.67-.66,4.57-5.32,4.94-6.34,1.9-2.11,4.6-7.29,4.32-10.36-.73,1.7-.84,3.29-1.62,4.73-.28.16-.51.14-.56-.17-.35-3.74-1.65-7.32-3.1-10.77-.05-.2-.18-.39-.13-.71,1.85-.47,3.74-.6,5.64-.32,4,.59,4.7,5.44,4.16,8.37Z"/>
  <path class="st50" d="M100.44,53.47l-8.05-.02c-.47-2.32-.67-4.54-.43-6.9,2.3-3.09,3.98-6.99,3.84-10.78l.58,1.22c2.39,4.99,2.6,10.79,2.37,16.32.71.01,1.31-.19,1.69.16Z"/>
  <path class="st87" d="M54.71,81.92c2.49,1.21,4.07,1.92,6.92,1.32,1.95-.55,3.92-.99,5.91-1.32.83.05,1.73-.24,2.55.16l-15.16,7.03c-3.18-2.12-6.17-4.45-9-7.17l8.78-.02Z"/>
  <path class="st32" d="M53.29,105.61c-4.21-.81-8.17-1.92-12.09-3.13l-4.92-2.6c-.22-.11-.73-.54-.42-.71.78-.43,1.65.19,2.44.21.73.02,1.3.21,1.96.32l2.32.4,12.71,2.56c.5.1,9.6,2.06,8.45,2.53-.11.04-.21.3-.36.31-1.5.07-2.96.3-4.51.25-1.93-.06-3.77-.33-5.59-.13Z"/>
  <path class="st72" d="M100.66,22.15c.46.58.75,1.16.99,1.92,1.99,6.42,3.14,13.11,3,19.78-.14.15-.2.37-.48.58-2.02-2.48-4.06-10.45-4.5-13.62l-.26-1.83c-.15-1.04-.59-7.29,1.25-6.84Z"/>
  <path class="st8" d="M29.05,93.87c-2.11-1.66-4.41-3.05-6.69-4.64-3-2.1-5.84-4.17-8.56-6.64-3.09-2.81-5.26-6.33-6.36-10.35-.13-.48-.11-.9.07-1.27,2.55,8.15,13.67,16.54,22.37,18.48-.79,1.44-.98,2.91-.83,4.41Z"/>
  <path class="st77" d="M86.01,46.54c.02.08-.02.16,0,.24l-2.33,2.97c-1.02-3.21-2.42-5.97-3.94-8.82-1.64-3.09-2.18-2.47-.94-6.33l.48-1.5c.75.16,1.07.92,1.58,1.54,2.88,3.43,4.22,7.65,5.15,11.91Z"/>
  <path class="st53" d="M82.54,10.06c2.5,1.99,5.04,4.04,7.64,6.13.81.98.58,1.44-.52.97l-6.48-3.73c-1.06-.61-2.29-1.14-3.52-.89l-7.68,1.56-3.11.64c-1.15.2-3.36.22-2.44-1.44,2.07-.99,4.2-1.82,6.41-2.48l.28-.39,5.54-.83c1.46-.22,2.62.11,3.88.47Z"/>
  <path class="st25" d="M30.22,53.08l-2.96-1.07c-.27-.1-.48-.33-.65-.43-.04-4.56.16-9.17,1.41-13.72.22-.78.39-1.57.9-2.06-.96,6.35,1.87,12.44,5.15,17.66-1.36-.08-2.7.05-3.86-.37Z"/>
  <path class="st91" d="M108.49,47.89c-1.45,1.86-2.75,3.92-5.06,5.32,2.98-8.1,1.81-16.04.25-23.95,2.51,4.01,4.62,12.09,4.68,16.92,0,.62-.04,1.2.12,1.71Z"/>
  <path class="st77" d="M114.67,45.83c-.98-.53-1.97-.91-3.2-1.44.99-2.04,1.84-3.95,2.66-6.03l4.17-10.6c.07.2.19.41.22.75.44,5.66-.62,11.29-3.35,16.24-.22.41-.53.67-.5,1.08Z"/>
  <path class="st26" d="M19.65,52.72c.05-.3-.08-.57-.23-.91-3.55-7.73-4.62-16.42-2.84-24.65.82-.2,1.6-.19,2.49.05-.64,4.94-1.01,9.79-1.03,14.78-.02,3.42.84,6.6,2.31,9.62.06.44-.56.81-.69,1.11Z"/>
  <path class="st88" d="M73.12,10.41c.06.11.18.23.18.34,0,.23-.22.35-.43.42l-3.67,1.3-2.29.94c-.26.11-.36.33-.34.58.09,1.01,4.63-.11,5.41.09-1.61.78-3.44,1.12-5.25,1.33l-2.27.25c-2.62.29-5.78.82-8.3.75.29-.61.79-.93,1.29-1.26,3.28-2.16,8.35-3.28,7.85-3.03.12-.06.17-.21.12-.39l7.7-1.34Z"/>
  <path class="st11" d="M95.09,37.72c-.88,8.4-9.63,14.3-10.24,15.54-.36.05-.73.02-1.04-.12.11-.47.35-.83.66-1.19l2.41-2.82c2.32-2.71,4.95-4.82,5.68-8.72.19-1.02.5-2.01.59-3.07s.22-2.13.65-3.16c1.05,1.23,1.41,2.41,1.29,3.55Z"/>
  <path class="st14" d="M111.58,82.69c-2.97,3.71-6.85,6.73-10.75,9.42-.1,0-.23.04-.3,0-.2-.09-.16-.34-.03-.53l1.05-1.46c1.19-1.65,2.18-3.36,3.49-4.92l2.55-3.07c.7.13,4.74-.44,4,.55Z"/>
  <path class="st18" d="M113.12,39.05c-.33-.04-.6.07-1.08.09-.1-1.9-.28-3.82.08-5.68.45-2.28.94-4.51,1.94-6.5.45-.19.53.09.54.52-.15,1.28-.22,2.56-.23,3.83,1.32-2.33,2.69-4.89,2.38-7.66.04-.28.28-.29.55-.18.64.51.98,1.24.81,2.17-.3,1.66-.91,3.17-1.54,4.74l-3.47,8.67Z"/>
  <path class="st51" d="M83.91,27.54c.47,1.01.64,2.11.9,3.25.21.93.59,1.77.66,2.69,0,.88.13,1.53.39,1.94,0,.06,0,.13.01.19-.05.34-.12.67-.49,1-.78-1.07-1.51-2.15-1.85-3.33-.1-.22-.06-.47.13-.73-.28-2.45-.96-5.37-2.53-7.35-1.22-1.54-4.89-3.25-6.79-3.57.61.36.77.71.49,1.06-.64-.02-1.22-.32-1.87-.56-1.43-.54-2.83-.99-4.3-1.45-.93-.3-1.97-.2-2.73-1.11,2.49-.35,8.01.27,10.1,1.24,2.57,1.19,5.71,2.82,7.05,5.42.26.5.24,1.22.83,1.31Z"/>
  <path class="st78" d="M106.19,16l5,3.63c.81,1.29,1.63,2.6,2.46,3.92l-.17.5c-2.78-1.55-5.63-3.18-7.95-5.47l-4.63-4.56c-.17-.17-.23-.56-.02-.67,1.56.61,3.98,2.59,5.32,2.65Z"/>
  <path class="st64" d="M117.31,23.47c-.2.14-.24.39-.19.68.21,1.4-.17,2.71-.75,3.97s-.99,2.59-1.94,3.74c-1.24-.22.27-4.1-.37-4.9.21-1.06-.11-2.01-.59-2.91-.42-.79-.8-1.59-1.46-2.36-.5-.59-.94-1.35-.83-2.06l5.2,3.11.92.72Z"/>
  <path class="st86" d="M49.65,17.18c-2.08,1.71-4.1,3.47-5.18,6.08-.75-.1-1.17-.15-1.75-.13,3.72-6.34,10.12-9.91,17.1-11.99,1.36-.41,2.67-.6,3.87-1.11.37.39.81.54,1.15,1.11l-6.06,1.5c-3.47.86-6.52,2.39-9.13,4.53Z"/>
  <path class="st70" d="M62.17,20.06c-.69.3-1.29.71-1.75,1.12-1.17.29-1.94,1.21-2.98,1.6-.8.29-5.21-.76-8.74,2.38-.75-.39-1.31-.88-1.91-1.26,3.97-2.88,10.58-4.21,15.39-3.85Z"/>
  <path class="st29" d="M81,106.33c-2.32.27-4.63-.23-7-.67-.94-.17-1.85-.21-2.62-.66,2.89-.96,5.65-2.34,8.4-3.76,1.21,1.47,1.55,3.36,1.22,5.09Z"/>
  <path class="st54" d="M94.65,18.3c.04.22.15.41.41.63-.51,1.17-4.8-1.43-5.4-1.78.17.03.6.09.7-.23-1.85-2.01-4.11-3.34-6.01-4.87l-1.7-1.36c-.24-.19-.28-.49-.12-.65,2.61.75,4.85,2,6.86,3.73l5.25,4.52Z"/>
  <path class="st52" d="M52.92,88.46c-.27.23-.6.2-.99.04-3.52-1.42-8.92-4-11.51-6.57h4.61c2.5,2.44,5.16,4.52,7.89,6.53Z"/>
  <path class="st21" d="M42.74,96.33c-.59-.02-1.22.09-1.9-.03-4.05-.72-7.77-2.34-11.14-4.54.15-.73.26-1.58.85-2.19.18-.17.71.21.9.37,1.95,1.57,3.89,2.99,5.97,4.41,1.67,1.13,3.46,1.69,5.32,1.99Z"/>
  <path class="st29" d="M74.32,97.69c-.02.11-.04.3.13.33.07.01.16.03.24.08.5.46.73.88.7,1.28-1.77.08-5.71-.9-7.73-1.38l-5-1.18c-.56-.13-1.15-.1-1.66-.13,2.45-.11,5.01-.51,7.56-.33,1.81.13,3.46,1.06,5.35.91.26-.02.43.3.41.43Z"/>
  <path class="st83" d="M115.98,67.72c-.59-2.38-1.21-4.44-.54-6.95.6-2.21,1.45-4.39,2.08-6.5.63.41-.27,6.44-.44,7.58-.29,2.03-.52,3.99-1.1,5.87Z"/>
  <path class="st90" d="M89.08,41.32c-.55,1.03-.96,2.15-1.66,3.11-.2-4.79-.94-9.45-2-14.05,1.75,2.25,3.12,7.31,3.42,10.25.03.3,0,.58.24.69Z"/>
  <path class="st36" d="M67.54,81.92c-2.3.78-5.02,1.74-7.69,1.96-1.5.12-4.5-.89-5.14-1.96h12.83Z"/>
  <path class="st28" d="M91.38,49.85h-.31s-1.23,3.05-1.23,3.05h1.67s.26.39.26.39c.02.14-.18.2-.38.2l-6.03-.03c2.07-1.93,4-3.76,5.91-6.01.18.84.05,1.62.11,2.4Z"/>
  <path class="st23" d="M91.38,49.85c.12,1.25.07,2.38.39,3.44h-2.51s1.87-4.48,1.87-4.48c-.06.41.22.75.25,1.03Z"/>
  <path class="st27" d="M87.35,28.74c-.77.06-1.5.43-2.25.44-.46-1.05-.7-2.18-1.19-3.15.76.03,2.37,3.06,3.45,2.71Z"/>
  <path class="st45" d="M85.85,35.42c-.73.35-.34-1.51-.39-1.94.04.62.48,1.27.39,1.94Z"/>
  <path class="st79" d="M83.89,53.48c-.11.03-1.55.79-1.73,0h1.73Z"/>
  <path class="st88" d="M113.69,62.92c-.14-.95-.32-1.74.06-2.86.29-.87.22-2.12.01-3.04-.1-.43-.79-.06-.94.17l-1.39,2.22c-.26.15-.38-.38-.6-.57,1.2-2.71,1.88-5.11,3.9-7.59.13-.16.48-.32.57-.21.36.44.11,4.48-.36,5.85-.25.73-.2,1.42-.37,2.13-.18.75-.49,1.32-.43,2.14.05.6-.47,1.19-.46,1.76Z"/>
  <path class="st63" d="M120.46,103.64c-.27.25-.55.12-.86-.39-.67.91-1.45,1.72-2.35,2.41-1.75,1.07-3.53,2.1-5.34,3.09,1.56-.52,3.12-.99,4.7-1.41l.36.35c-1.22,1.26-2.63,2.15-4.16,2.95l-6.42,3.38c-2.5,1.32-4.99,2.46-7.25,4.13-1.64,1.21-3.22,2.31-4.59,3.82-.48-.45-.19-.83.05-1.22,2.08-3.43,3.27-4.99,6.38-7.52,3.39-2.76,7.01-5.04,10.77-7.27,1.51-.9,4.25-2.32,4.73-3.91.59-1.95-.7-4.63-1-7.04l-.31-2.56c-.09-.7.42-4.79,1.1-3.08l2.95,7.42c.46,1.15,2.48,6.19,1.25,6.86Z"/>
  <path class="st35" d="M120.46,103.64c.16,1.59-2.5,3.38-3.48,4.05-1.83.12-4.38,1.68-6.59,1.71,2.05-1.82,6.05-3.13,7.84-5.08.46-.5.71-1.25,1.41-1.51.41.23.53.63.81.84Z"/>
  <path class="st82" d="M21.16,28.29c.54.27.64.87.3,1.78-.46.88-.61,1.78-.46,2.69-.38.96-.59,1.95-.62,2.98.15,2.39.37,4.76.65,7.1.95-4.47,2.01-8.93,3.19-13.36l-.02-1.09c-.87.12-1.5.07-2.12-.63-.26.49-.56.67-.93.54.6-1.68.92-3.51,1.99-5,.33.19.41.58.24,1.16-.95,4.73.87,2.17,2.05-.08,1.75-4.08,3.29-8.25,4.64-12.5l-1.86,2.38h-.47c.15-1.17,1.45-2.95,2.14-4.18.58-1.04,1.14-2.24,2.53-2.61-.51,2.06-1.3,3.82-1.89,5.74-.84,2.74-1.69,5.37-2.74,8.07-1.12,2.88-2.15,5.66-2.89,8.66l-1.18,4.78-1.17,5.33c-.39,1.77-.74,3.52-1.49,5.2-.49-.19-.49-.6-.59-1-1.28-5.4-1.11-10.88.7-15.95Z"/>
  <path class="st64" d="M23.14,23.29c1.18-3.27,2.87-6.17,4.6-9.05l2.43-3.17c.38.24.36.68.22,1.08l-3.18,9.12c-.38,1.08-2.66,6.62-3.93,6.24-.85-.25-.54-2.34-.43-2.57.28-.57.13-1.18.3-1.65Z"/>
  <path class="st64" d="M130.7,50.43c.48,1.57.66,3.26.89,4.96.36,2.71-.07,5.17-.57,7.7-.42,1.88-1.2,3.49-2.34,4.84l-.35-.05c-.03-.66.09-1.34.35-2.05.24-2.05.36-4.11.35-6.19l-1.16-7.1c-.18-1.09-.24-2.09-.34-3.07-.44-1.02-1.37-5.94-.62-6.66.41-.39.57-.37,1.03-.07.99.64,2.81,6.27,2.77,7.68Z"/>
  <path class="st6" d="M131.02,63.09c-.25,1.27-.46,2.46-1.25,3.79-1.7,2.87-3.87,5.46-6.65,7.51-.74.55,4.26-8.22,4.91-10.78l1-3.96c.44,2.71.53,5.34-.53,8.14,1.19-.58,1.97-4.15,2.52-4.7Z"/>
  <path class="st17" d="M130.7,50.43c-.09-.28-2.83-8.98-3.5-7.35-.41.99-.13,2.08-.02,3.1l.35,3.29c-.58.48-1.35-5.12-1.33-5.21.14-.71-.26-1.31-.3-1.95-.09-1.52-.16-2.98-.03-4.56,2.3-.24,3.91,6.5,4.33,8.14.09.35,1.02,4.77.5,4.54Z"/>
  <path class="st47" d="M48.64,92.3c-1.34.49-6.91.19-7.92-.3-1.64-.81-2.73-2.28-3.95-3.57l-5.27-5.54c1.6.17,2.72,1.16,3.91,1.94l3.48,2.27c3.07,2,6.12,3.65,9.76,5.19Z"/>
  <path class="st85" d="M76.36,99.61l-.97-.24c-.29-.4-.7-.76-.7-1.28.73.43,1.31,1.05,2.09,1.43-.2.18-.32.05-.42.08Z"/>
  <path class="st64" d="M7.35,45.62c.86,2.09,1.51,6.55,1.54,8.81.34,2.63.6,5.26.78,7.9.41,1.48.19,2.06-.69,1.74-1.3-2.42-1.77-5.38-2.19-8.1l-1.79-10.14c-1.03-3.34,1.8-3.19,2.35-.2Z"/>
  <path class="st12" d="M6.79,55.97l1.67,5.84c.22.78.32,1.56.98,2.19.27-.62-.12-1.13-.13-1.71-.06-3.14-.38-4.72-.42-7.86.45.39.71,4.68.86,5.77l.45,3.32c.47,3.53,1.42,6.8,2.49,10.27-3.23-3.54-4.64-8.67-5.44-12.99-.14-.78-.34-1.48-.37-2.31l-.08-2.51Z"/>
  <path class="st60" d="M7.35,45.62c.06.14-1.07-1.99-1.65-1.93-.86.09-.76,1.82-.71,2.13-.75-1.39-.99-3.02-1.29-4.66-.13-.69-.53-2.17.16-2.38.62-.18,3.75,5.69,3.49,6.84Z"/>
  <path class="st15" d="M45.04,23.88l-.39.63c-6.35,2.95-9.66,7.57-8.41,14.58-.01.38-.22.83-.6.94-1.02,4.08.97,9.63,2.92,13.39l-3.76.03c-2.49-3.71-4.5-7.78-5.28-12.28-.64-3.69.2-7.36,1.71-10.68.45-1,1.43-1.37,2.47-1.3,1.7.11.74-1.62,2.99-3.1,2.54-1.67,5.41-2.93,8.35-2.21Z"/>
  <path class="st43" d="M66.77,25.61l-.72.44c-4.98.44-9.75,2.44-13.79,5.27l-.88-.08c-2.09-.06-4.54-.63-5.62,2.22-.5,1.31-.61,2.71-.11,3.88l.07.81c-.68,2.13-1.19,4.32-1.38,6.54-.13.42-.2.62-.66.35-.1-.77-.67-1.4-.68-2.14-.09-5.8,1-12,5.03-16.36,4.11-4.44,9.32-3.21,14.71-2.11,1.45.3,2.74.71,4.02,1.2Z"/>
  <path class="st69" d="M35.64,40.03c-.15-.31.25-.71.22-1.01-.32-3.13-.35-7.04,1.78-9.64,2.02-2.46,4.66-4.1,7.4-5.49,1.14.28,2.13.96,3.29,1.58l-1.11,1.2c-3.48.39-8.03,1.19-9.52,4.86-1.54,3.79-1.41,8.03.29,11.7.61,1.31,1.87,2.31,2.19,3.66.53,2.18.14,4.61-.7,6.83-2.29-3.34-4.06-9.63-3.59-13.23.04-.3-.07-.35-.25-.46Z"/>
  <path class="st41" d="M49.66,43.69c.62,2.59,1.24,5.12,1.89,7.59,2.32-.33,4.62-.62,6.9-.88,1.02.58,1.93.95,2.84,1.7-2.95.26-5.56.9-8.34,1.33-1.65.26-3.33-.05-4.96.05l-2.35-4.09c.99-2.85,1.31-5.84,1.57-8.82,1.01,1.09,1.56,2.27,2.45,3.13Z"/>
  <path class="st31" d="M78.31,43.32c0,2.62,0,3.93,0,3.93-.08,1.11-.19,1.31-1.18,1.75-1.19.53-7.64.5-9.3.41l-.27-.36c2.79-2.9,5.68-5.6,8.01-8.85l1.96-2.74c.35,2.06.21,4.04.78,5.86Z"/>
  <path class="st45" d="M45.8,28.32c-1.47,1.78-2.63,3.51-3.55,5.62l-.5.1c-.37.64-.33,1.34-.37,2.14-.29,6.21,2.99,11.93,5.85,17.23l-2.62.07c-.86-2.11-2.06-3.95-2.99-5.94.4-.05.77.09,1.11.43-2.43-4.3-3.76-7.53-3.35-12.65.2-2.41.82-4.13,2.03-6.16.08-.14.04-.31-.05-.46,1.59-.71,3.25-1.33,5.17-1.37-.2.41-.45.75-.73.99Z"/>
  <path class="st20" d="M58.69,43.06c.14.62-.18,1.02-.96,1.2,1.5,1.2,3.02,2.28,4.57,3.27,1.31-1.31,2.77-2.44,4.26-3.53.87-.63,1.65-1.19,2.68-1.49.52-.03.89-.07,1.38.07l-6.43,7.94c-.33.4-.52.81-.98,1.21-3.43-2.66-6.74-5.35-9.84-8.67,1.86-.28,3.63-.25,5.32,0Z"/>
  <path class="st76" d="M76.39,32.73c-.53.21-.67-.17-.61-.68-.8-2-2.1-3.82-3.71-5.23-.24-.45-.24-.49.3-.61,1.28-.05,2.59-.11,3.61.62,2.73,1.96,3.49,5.6,1.93,8.6-1.75,3.38-4.03,6.3-6.73,9.01l-5.55,5.57c-.4.4-.75.79-1.2,1.12l4.07-4.98c1.93-2.37,3.67-4.73,5.38-7.27,1.57-2.32,3.97-6.56,3-9.28-.29,1.13-.16,2.17-.48,3.13Z"/>
  <path class="st84" d="M56.92,32.96c.75-.42,1.56-.84,2.43-1.26,2.03-.8,4.47-1.72,6.63-1.48,1.69.77,3.29,1.8,4.21,3.82-1.02-.97-2.5-.58-3.76-.84-2.01-.43-3.68-.34-5.68-.02-1.52.25-3.2.41-3.85,2.22-.7,1.95.99,2.9-1,5.66-.9.54-2.11.4-3.1.68.33-3.08,1.67-5.75,3.66-7.99.24-.27.45-.5.46-.8Z"/>
  <path class="st7" d="M58.24,49.61c-4.69-2.76-13.31-9.4-12.13-15.41.21-1.09.9-1.99,1.99-2.38-.44,4.6,1.5,7.62,4.35,11,3.02,3.46,6.49,6.28,10.12,9.13-1.57-.59-2.79-1.54-4.33-2.33Z"/>
  <path class="st66" d="M41.36,28.7c.23.03.42.01.75.24-1.54,1.58-1.89,3.64-2.25,5.76-.62,3.58,0,7.11,1.76,10.3.72,1.31,1.59,2.51,1.75,4.1-.62-.58-1.36-1.02-1.76-1.55-1.19-1.56-2.38-3.17-3.27-5.06-1.48-3.18-1.51-6.96-.4-10.2.62-1.82,1.89-2.9,3.41-3.58Z"/>
  <path class="st44" d="M65.98,30.23c-2.76.63-5.55,1.15-8.08,2.65-.19.11-.41.33-.62.31-.11-.01-.22-.15-.36-.22-2.78,1.96-3.98,5.29-4.78,8.75-.29-2.54.39-5.06,1.27-7.36,1.36-3.59,4.84-6.91,9.1-5.62,1.27.38,2.35.98,3.47,1.49Z"/>
  <path class="st81" d="M67.57,49.05c1.31-.18,9.88.29,10.19-.85.45-1.64.06-3.96.55-4.88.73,2.38,1.73,4.49,2.99,6.79-5.53.2-10.86.66-16.25,1.36.86-1.04,1.64-1.78,2.52-2.42Z"/>
  <path class="st22" d="M74.27,36.95c-.22.27-.02.68-.38.8.01-3.07-.98-5.81-2.92-8.04-2.25-2.58-5.61-3.26-8.67-1.54-5.53-1.4-6.81,3.21-9.14,3.59-.53.09-1.24-.52-1.77-.53.46.03.78-.31,1.18-.6,1.76-1.29,3.71-2.09,5.7-2.98,2.77-1.25,5.62-1.86,8.51-2.04,1.16.43,2,1.03,2.97,1.67,3.43,2.26,4.63,5.79,4.54,9.68Z"/>
  <path class="st5" d="M69.24,42.51c-.17.3-.51.47-.85.7-2.17,1.46-4.21,2.95-6.14,4.91l-5.19-3.88c.57-.47,1-.48,1.4-.7l-.37-.41.61-.07c1.64.54,3.07.17,4.65-.1,1.99-.35,3.98-.35,5.9-.44Z"/>
  <path class="st55" d="M58.44,50.4s-.05.08-.07.21c-2.26.53-4.56.82-6.95.99-.51-.72-.71-1.48-.86-2.3-.32-1.79-.63-3.51-1.11-5.26-.04-.16.06-.4.2-.34,2.75,2.63,5.65,4.79,8.79,6.71Z"/>
  <path class="st13" d="M68.7,53.53l-12.53-.1c8.93-1.56,17.52-2.73,26.75-2.77-.31.34-.81.24-1.29.33l-12.93,2.54Z"/>
  <path class="st2" d="M73.34,36.19c.09.48.22,2.23-.44,1.84l-1.34-2.37c-1.49-4.16-4.61-5.81-8.43-7.33,1.86-.72,3.98-.85,5.68.27,2.61,1.71,4.19,4.6,4.53,7.59Z"/>
  <path class="st34" d="M43.68,45.03c.26-.13.31-.47.34-.81.21-2.44.8-4.69,1.63-6.88l.95,2.23c.15,3.08-.46,6.01-1.24,9.14l-1.68-3.68Z"/>
  <path class="st80" d="M72.36,26.21c-.04.08-.1.18-.09.28,0,.08.12.1.2.18,1.63,1.47,2.86,3.26,3.68,5.31-.04.34.04.62.24.76-.51,1.5-1.11,3.02-2.12,4.23,1.34-3.65-1.2-7.9-4.14-10.07.8-.4,1.53-.65,2.23-.68Z"/>
  <path class="st49" d="M68.53,35.82c-3.71-2.02-7.45-1.27-9.4,2.46-.96-1.03-.87-2.31.14-3.29,2.62-2.52,7.09-2.25,9.26.83Z"/>
  <path class="st68" d="M63.02,42.43c-1.23.23-2.39.49-3.64.18-2.19-.54-4.31-.15-6.54-.25,5.36-1.12,13.03-1.66,18.32-.58-2.8.36-5.44.14-8.14.65Z"/>
  <path class="st26" d="M52.9,32.21c-1.66,1.57-2.5,3.36-3.17,5.63-1.12-1.86-1.41-4.03-1.22-6.19,1.53-.2,2.95-.08,4.39.56Z"/>
  <path class="st62" d="M83.16,49.76c-.25.49-.74.29-1.24.31-1.88-3.18-3.31-6.57-3.58-10.46,1.94,3.18,3.53,6.49,4.81,10.16Z"/>
  <path class="st3" d="M67.84,38.78c-.38-2.74-2.8-2.94-2.22-2.26.58-.08.97.12,1.21.31.38.3.51.78.23,1.29-.17-.59-.56-1-.88-1.31-.55-.53-1.15-.11-1.75-.19-1.06-.15-2.06-.38-3.26-.3,2.33-1.73,5.82-1.45,7.73.78.9,1.05.89,2.57.56,3.83-.93-.29-1.49-1.2-1.62-2.16Z"/>
  <path class="st75" d="M41.75,34.04c1.53-2.64,1.18-3.39,4.04-5.72-.16.71-.65,1.3-1,2.03-1.6,3.34-2.11,6.91-2.33,10.69-.79-2.27-.68-4.66-.72-7Z"/>
  <path class="st33" d="M70.56,35.07c1.62,2.25.55,5.8.39,5.95-.18.18-.52.08-.69,0-.78-.35,1.01-4.63-3.13-7.25,1.33-.14,2.67.24,3.43,1.29Z"/>
  <path class="st39" d="M44.05,53.41c-1.21.25-2.41.04-3.89.09.62-1.95.71-3.63.85-5.65,1.25,1.7,1.96,3.48,3.05,5.56Z"/>
  <path class="st0" d="M51.42,40.46c-.32-.43-1.18-1.07-1.17-1.79.01-1.95,1.69-5.4,3.59-6.42-1.61,2.88-1.83,4.53-2.42,8.21Z"/>
  <path class="st65" d="M64.73,38.03c-2.62.08-3.59,1.81-4.39,1.62-.35-.08-.91-.44-.86-.95.13-1.21,1.18-1.67,2.23-1.84,1.26-.2,2.39.09,3.03,1.16Z"/>
  <polygon class="st74" points="80.64 53.5 72.69 53.4 82.19 51.47 80.64 53.5"/>
  <path class="st48" d="M65.28,40.73c-1.34.04-2.4-.55-3.63-1.05,1.44-1.08,3.2-1.5,5.13-.94-.47.66-.89,1.34-1.5,1.99Z"/>
  <path class="st10" d="M58.05,35.92c-.64,1.66,1.19,3.48,2.13,4.73-1.3,1.39-2.81-2.53-2.94-3.38-.27-1.72.76-3.41,2.64-3.4-.78.59-1.49,1.13-1.83,2.04Z"/>
  <path class="st73" d="M73.34,36.19c.37.81.06,1.68.03,2.52-.73.87-1.14,1.75-1.99,2.55.63-1.98.57-3.76.18-5.59.78.52,1.31,1.38,1.68,2.29l.1-1.76Z"/>
  <path class="st9" d="M73.91,25.62c-1.5-.03-2.98.24-4.39.89-.62-.34-1.13-.67-1.59-1.06.44-.37,1.16-.11,1.69-.23,1.62-.37,2.93.13,4.29.41Z"/>
  <path class="st19" d="M68.28,40.79c-.8.05-1.44,0-2.25-.11.47-.73.97-1.32,1.42-2.22.06.82.24,1.46.83,2.33Z"/>
  <path class="st93" d="M58.51,40.95c-.75.21-1.34.32-1.97.14.33-.81.58-1.37.69-2.04l1.28,1.9Z"/>
  <path class="st58" d="M66.47,37.98c-.09.27-.78.16-1.05.04s-.5-.46-.56-.88c.64-.25,1.48.08,1.61.84Z"/>
  <path class="st56" d="M62.63,40.69c-.45-.08-.86.17-1.44.15-.29-.01-.81-.42-.57-.59.54-.38,1.07.06,2.01.44Z"/>
  <path class="st47" d="M65.36,90.26c-1.03.19-1.9.62-2.8.2.62-.43,1.22-.65,1.87-.9l14.31-5.39c1.58-.6,4.31-.52,6.1-.68l4.57-.4c.37,1.78-6.03,3.62-7.25,3.88l-6.19,1.3-10.62,1.99Z"/>
  <path class="st4" d="M24.03,109.78c-4.02-1.27-7.49-3.33-10.98-5.31-.92-.52-4.63-3.41-3.16-3.97.83-.32,1.49.21,2.24.5,4.05,2.68,8.13,5.23,11.89,8.78Z"/>
  <path class="st64" d="M83.52,33.29c-2.7-4.2-3.57-8.3-8.7-10.59-.25-.37-.61-.76-1.1-.96-.27-.11-.28-.84-.04-.75,5.52,1.98,8.36,2.33,9.91,9l.39,1.68c.15.66.13,1.3-.46,1.61Z"/>
  <path class="st89" d="M21.16,28.29l.97-1.2c1.13,1.74,1.62.51,2.45,1.06.23.15-.08.45-.04.62.35,1.57-.58,2.84-.87,4.25-.41,1.96-.75,3.8-1.39,5.75-.28.85-.22,1.78-.62,2.66-.29.63.13,1.58-.74,2.08-.69-1.26-.41-2.56-.55-3.87-.2-1.87-.61-3.76-.17-5.62.15-.63.62-1.09.37-1.89-.31-.99,1.01-2.04.6-3.83Z"/>
  <g>
    <path class="st47" d="M113.26,50.47H20.92c-2.96,0-5.36,2.4-5.36,5.36v20.69c0,2.96,2.4,5.36,5.36,5.36h92.34c2.96,0,5.36-2.4,5.36-5.36v-20.69c0-2.96-2.4-5.36-5.36-5.36ZM118.44,76.51c0,2.85-2.32,5.18-5.18,5.18H20.92c-2.86,0-5.18-2.32-5.18-5.18v-20.69c0-2.85,2.32-5.18,5.18-5.18h92.34c2.85,0,5.18,2.32,5.18,5.18v20.69Z"/>
    <path class="st67" d="M113.26,50.3H20.92c-3.05,0-5.53,2.48-5.53,5.53v20.69c0,3.05,2.48,5.53,5.53,5.53h92.34c3.05,0,5.53-2.48,5.53-5.53v-20.69c0-3.05-2.48-5.53-5.53-5.53ZM118.44,76.51c0,2.85-2.32,5.18-5.18,5.18H20.92c-2.86,0-5.18-2.32-5.18-5.18v-20.69c0-2.85,2.32-5.18,5.18-5.18h92.34c2.85,0,5.18,2.32,5.18,5.18v20.69Z"/>
    <path class="st47" d="M118.44,55.83v20.69c0,2.85-2.32,5.18-5.18,5.18H20.92c-2.86,0-5.18-2.32-5.18-5.18v-20.69c0-2.85,2.32-5.18,5.18-5.18h92.34c2.85,0,5.18,2.32,5.18,5.18Z"/>
  </g>
  <g>
    <path class="st40" d="M37.91,65.07l-.07,6.68c1.61.06,3.2.1,4.82-.07,2.41-.25,1.81-3.59,2.84-2.64l-.29,3.49h-10.25s-.04-13.22-.04-13.22c0-.93-.55-1.5-1.51-1.52-.13-.07-.26-.08-.29-.15-.04-.11-.04-.21-.02-.28.04-.14.31-.14.51-.14l11.48-.02c.03.26.56,4.58-.35,3.53-.31-.36-.27-2.65-2.63-2.7-1.4-.03-2.73-.06-4.33-.01l.11,6.21,5.47.11c.18,0,.14.59-.05.73h-5.4Z"/>
    <path class="st24" d="M51.63,65.06l-.06,6.72c1.64,0,3.11.08,4.63-.11,2.39-.3,2.02-3.32,2.92-2.74l-.19,3.56-10.25.03-.05-13.21c0-.84-.48-1.46-1.32-1.51-.16-.07-.37-.08-.45-.16-.07-.06-.12-.4.05-.4l11.84-.04c.03.31.52,4.67-.29,3.53-.39-.55-.44-2.64-2.64-2.72-1.42-.05-2.72-.04-4.33,0l.1,6.21,5.44.05c.22,0,.17.35.16.52s-.22.25-.53.26h-5.03Z"/>
    <path class="st71" d="M80.54,57.72c-.42-.88,1.64-.5,2.41-.47v9.73c0,1.64-.53,3.32-1.77,4.4-1.77,1.54-4.18,1.68-6.39,1.16-2.43-.57-4.02-2.43-4.03-4.95l-.04-8.28c0-1.73-1.64-1.33-1.83-1.58-.06-.07-.08-.42.07-.44,1.58-.21,4.66-.52,4.69,1.81l.13,8.77c.03,2.28,1.79,3.85,4.03,3.87s4.03-1.51,4.24-3.84c.24-2.83.1-5.67.08-8.55-.01-1.46-1.58-1.62-1.59-1.63Z"/>
    <path class="st71" d="M29.24,71.72c2.67-.24,2.05-3.93,3.12-3.08l-.3,3.87h-10.01s0-13.2,0-13.2c0-.92-.56-1.52-1.51-1.47-.14-.09-.32-.05-.38-.11-.07-.08,0-.25.04-.34.03-.07.15-.1.34-.1l2.5-.04c1.06-.02,1.88.78,1.89,1.85l.03,12.66c1.47.08,2.85.09,4.29-.04Z"/>
    <path class="st67" d="M104.74,77.41c-.96.07-1.61-.23-1.95-.86-.29-.54-.31-1.4.28-1.92.25-.22.63-.25.93-.16.34.11,1.06,2.45,2.35,1.46.85-.65,1.69-1.99,1.88-3.04-1.35-3.42-2.84-6.64-4.35-9.93-.38-.83-1.07-.88-2.04-.94.89-.89,2.06-.93,3.15-.81.79.26,1.37.81,1.7,1.56l2.98,6.75,3.02-7.69c.09-.23.23-.35.31-.44.1-.12.71-.02.65.15-1.71,4.42-3.38,8.75-5.36,13.03-.67,1.46-1.89,2.73-3.54,2.85Z"/>
    <path class="st46" d="M90.76,63.47c-.5.65-1.08,1.47-1.09,2.27l-.09,6.7c-.86.14-1.8.12-2.68-.02l-.08-9.73c-.7-.28-1.26.25-1.84-.3,1.1-.54,4.45-2.13,4.6-.33l.17,2.04c.65-1.27,1.36-2.54,2.82-2.92.63-.16,1.28-.09,1.81.33.4.31.66.96.55,1.66s-.65,1.14-1.24,1.2c-.73.08-1.14-.31-1.52-.98-.23-.4-1.05-.4-1.41.08Z"/>
    <path class="st24" d="M102.21,70.88c-.48,1.46-2.16,2.25-3.63,1.69-.74-.28-1.13-1.06-1.14-1.84l-.08-8.1c-.65-.27-1.22.33-1.81-.29,1.28-.6,2.53-.9,3.84-1.09.47-.07.75.58.75.98l.03,8.48c0,.36.18.68.41.74.94.28,1.08-.97,1.63-.58Z"/>
    <path class="st59" d="M67.13,67.34l-6.12-.02c.02-.6.22-1.13.45-1.76l5.97-.03c.01.65-.14,1.07-.3,1.81Z"/>
    <circle class="st92" cx="98.67" cy="57.95" r="1.54"/>
  </g>
</svg>